<svg xmlns="http://www.w3.org/2000/svg" width="1180" height="610" viewBox="0 0 1180 610" font-family="'JetBrains Mono','Consolas',monospace">
<rect x="0" y="0" width="1180" height="610" rx="14" fill="#0A101F"/>
<rect x="1" y="1" width="1178" height="608" rx="13" fill="none" stroke="#1B2740" stroke-width="1"/>
<rect x="1" y="1" width="1178" height="42" rx="13" fill="#0C1322"/>
<rect x="1" y="34" width="1178" height="10" fill="#0C1322"/>
<line x1="0" y1="42" x2="1180" y2="42" stroke="#1B2740"/>
<circle cx="26" cy="21.0" r="6" fill="#FF5F56"/>
<circle cx="46" cy="21.0" r="6" fill="#FFBD2E"/>
<circle cx="66" cy="21.0" r="6" fill="#27C93F"/>
<text x="96" y="25.0" font-size="13" fill="#5A6B85">profile.sh --live</text>
<text x="1156" y="25.0" font-size="12" fill="#5A6B85" text-anchor="end">~/ @imvishalbhargav</text>
<rect x="24" y="56" width="430" height="538" rx="10" fill="#0D1526" stroke="#1B2740"/>
<text x="38" y="76" font-size="11" letter-spacing="2" fill="#22D3EE">VISUAL.MAP</text>
<circle cx="434" cy="72" r="4" fill="#10B981"><animate attributeName="opacity" values="1;0.25;1" dur="1.6s" repeatCount="indefinite"/></circle>
<rect x="38" y="88" width="402" height="452" rx="6" fill="none" stroke="#22304C" stroke-dasharray="2 4"/>
<text x="38" y="568" font-size="10" letter-spacing="1" fill="#5A6B85">floyd-steinberg . serpentine . 150x169</text>
<g><animate attributeName="opacity" begin="3.1s" dur="9s" values="1;0.94;1" repeatCount="indefinite"/>
<path d="M303.33 234.96h2.62v2.62h-2.62zM223.56 237.53h7.77v2.62h-7.77zM172.09 245.25h5.2v2.62h-5.2zM151.51 260.69h7.77v2.62h-7.77zM236.43 265.84h7.77v2.62h-7.77zM290.47 270.99h5.2v2.62h-5.2zM244.15 299.29h2.62v2.62h-2.62zM257.01 304.44h2.62v2.62h-2.62zM246.72 312.16h2.62v2.62h-2.62zM226.13 317.31h2.62v2.62h-2.62zM223.56 319.88h2.62v2.62h-2.62zM213.27 322.45h2.62v2.62h-2.62zM269.88 337.89h2.62v2.62h-2.62zM287.89 350.76h2.62v2.62h-2.62zM195.25 373.92h2.62v2.62h-2.62zM259.59 376.49h2.62v2.62h-2.62zM210.69 379.07h5.2v2.62h-5.2zM69.16 409.95h2.62v2.62h-2.62zM264.73 415.09h5.2v2.62h-5.2zM272.45 422.81h5.2v2.62h-5.2zM210.69 425.39h2.62v2.62h-2.62zM249.29 451.12h2.62v2.62h-2.62z" fill="#A78BFA" shape-rendering="crispEdges" opacity="0"><animate attributeName="opacity" begin="0.20s" dur="0.6s" from="0" to="1" fill="freeze"/></path>
<path d="M226.13 224.67h2.62v2.62h-2.62zM282.75 245.25h2.62v2.62h-2.62zM244.15 250.4h2.62v2.62h-2.62zM298.19 250.4h2.62v2.62h-2.62zM295.61 255.55h2.62v2.62h-2.62zM300.76 255.55h2.62v2.62h-2.62zM254.44 263.27h7.77v2.62h-7.77zM228.71 265.84h5.2v2.62h-5.2zM151.51 268.41h18.06v2.62h-18.06zM246.72 270.99h2.62v2.62h-2.62zM231.28 276.13h12.92v2.62h-12.92zM164.37 289h7.77v2.62h-7.77zM257.01 289h2.62v2.62h-2.62zM259.59 296.72h2.62v2.62h-2.62zM239 304.44h5.2v2.62h-5.2zM262.16 304.44h2.62v2.62h-2.62zM280.17 322.45h2.62v2.62h-2.62zM241.57 332.75h5.2v2.62h-5.2zM220.99 335.32h7.77v2.62h-7.77zM200.4 337.89h2.62v2.62h-2.62zM233.85 361.05h2.62v2.62h-2.62zM154.08 373.92h2.62v2.62h-2.62zM254.44 384.21h2.62v2.62h-2.62zM223.56 399.65h10.34v2.62h-10.34zM215.84 407.37h7.77v2.62h-7.77zM249.29 430.53h7.77v2.62h-7.77zM236.43 433.11h5.2v2.62h-5.2z" fill="#A78BFA" shape-rendering="crispEdges" opacity="0"><animate attributeName="opacity" begin="0.16s" dur="0.6s" from="0" to="1" fill="freeze"/></path>
<path d="M251.87 121.73h10.34v2.62h-10.34zM172.09 132.03h2.62v2.62h-2.62zM329.07 193.79h5.2v2.62h-5.2zM159.23 276.13h2.62v2.62h-2.62zM249.29 291.57h7.77v2.62h-7.77zM316.2 299.29h2.62v2.62h-2.62zM251.87 304.44h2.62v2.62h-2.62zM174.67 317.31h2.62v2.62h-2.62zM287.89 317.31h2.62v2.62h-2.62zM264.73 322.45h2.62v2.62h-2.62zM269.88 327.6h2.62v2.62h-2.62zM231.28 335.32h5.2v2.62h-5.2zM215.84 348.19h2.62v2.62h-2.62zM233.85 407.37h2.62v2.62h-2.62zM257.01 415.09h5.2v2.62h-5.2zM223.56 417.67h7.77v2.62h-7.77zM246.72 443.4h7.77v2.62h-7.77z" fill="#A78BFA" shape-rendering="crispEdges" opacity="0"><animate attributeName="opacity" begin="0.38s" dur="0.6s" from="0" to="1" fill="freeze"/></path>
<path d="M228.71 116.59h2.62v2.62h-2.62zM195.25 121.73h12.92v2.62h-12.92zM213.27 126.88h2.62v2.62h-2.62zM202.97 129.45h2.62v2.62h-2.62zM280.17 129.45h2.62v2.62h-2.62zM293.04 142.32h10.34v2.62h-10.34zM179.81 219.52h2.62v2.62h-2.62zM223.56 227.24h2.62v2.62h-2.62zM202.97 240.11h2.62v2.62h-2.62zM226.13 242.68h2.62v2.62h-2.62zM316.2 242.68h2.62v2.62h-2.62zM262.16 268.41h5.2v2.62h-5.2zM190.11 273.56h12.92v2.62h-12.92zM300.76 273.56h2.62v2.62h-2.62zM164.37 296.72h5.2v2.62h-5.2zM210.69 301.87h5.2v2.62h-5.2zM228.71 312.16h2.62v2.62h-2.62zM179.81 314.73h2.62v2.62h-2.62zM303.33 335.32h2.62v2.62h-2.62zM187.53 353.33h2.62v2.62h-2.62zM241.57 381.64h2.62v2.62h-2.62zM259.59 381.64h2.62v2.62h-2.62zM226.13 386.79h12.92v2.62h-12.92zM208.12 389.36h7.77v2.62h-7.77zM215.84 402.23h10.34v2.62h-10.34zM231.28 433.11h2.62v2.62h-2.62z" fill="#A78BFA" shape-rendering="crispEdges" opacity="0"><animate attributeName="opacity" begin="0.25s" dur="0.6s" from="0" to="1" fill="freeze"/></path>
<path d="M236.43 116.59h15.49v2.62h-15.49zM236.43 124.31h2.62v2.62h-2.62zM282.75 142.32h2.62v2.62h-2.62zM148.93 178.35h5.2v2.62h-5.2zM331.64 196.36h2.62v2.62h-2.62zM264.73 214.37h2.62v2.62h-2.62zM154.08 219.52h2.62v2.62h-2.62zM236.43 242.68h7.77v2.62h-7.77zM295.61 245.25h2.62v2.62h-2.62zM269.88 276.13h10.34v2.62h-10.34zM254.44 281.28h5.2v2.62h-5.2zM300.76 281.28h2.62v2.62h-2.62zM323.92 289h2.62v2.62h-2.62zM228.71 296.72h20.64v2.62h-20.64zM166.95 299.29h5.2v2.62h-5.2zM251.87 312.16h2.62v2.62h-2.62zM202.97 340.47h2.62v2.62h-2.62zM269.88 340.47h2.62v2.62h-2.62zM241.57 343.04h2.62v2.62h-2.62zM257.01 345.61h2.62v2.62h-2.62zM257.01 348.19h2.62v2.62h-2.62zM295.61 361.05h2.62v2.62h-2.62zM197.83 366.2h2.62v2.62h-2.62zM257.01 379.07h2.62v2.62h-2.62zM136.07 381.64h2.62v2.62h-2.62zM197.83 394.51h2.62v2.62h-2.62zM205.55 409.95h2.62v2.62h-2.62zM267.31 420.24h5.2v2.62h-5.2z" fill="#A78BFA" shape-rendering="crispEdges" opacity="0"><animate attributeName="opacity" begin="0.40s" dur="0.6s" from="0" to="1" fill="freeze"/></path>
<path d="M192.68 124.31h10.34v2.62h-10.34zM182.39 126.88h2.62v2.62h-2.62zM148.93 165.48h2.62v2.62h-2.62zM151.51 216.95h2.62v2.62h-2.62zM287.89 229.81h2.62v2.62h-2.62zM246.72 234.96h2.62v2.62h-2.62zM316.2 247.83h2.62v2.62h-2.62zM166.95 252.97h2.62v2.62h-2.62zM223.56 258.12h5.2v2.62h-5.2zM226.13 260.69h5.2v2.62h-5.2zM172.09 263.27h2.62v2.62h-2.62zM218.41 263.27h2.62v2.62h-2.62zM313.63 286.43h2.62v2.62h-2.62zM226.13 291.57h5.2v2.62h-5.2zM311.05 294.15h2.62v2.62h-2.62zM280.17 296.72h12.92v2.62h-12.92zM305.91 296.72h2.62v2.62h-2.62zM187.53 314.73h12.92v2.62h-12.92zM239 319.88h5.2v2.62h-5.2zM220.99 322.45h2.62v2.62h-2.62zM241.57 322.45h2.62v2.62h-2.62zM200.4 325.03h2.62v2.62h-2.62zM215.84 335.32h2.62v2.62h-2.62zM244.15 340.47h10.34v2.62h-10.34zM316.2 358.48h2.62v2.62h-2.62zM277.6 366.2h2.62v2.62h-2.62zM213.27 386.79h10.34v2.62h-10.34zM239 397.08h2.62v2.62h-2.62zM275.03 397.08h2.62v2.62h-2.62zM231.28 404.8h5.2v2.62h-5.2zM228.71 415.09h10.34v2.62h-10.34zM231.28 438.25h2.62v2.62h-2.62z" fill="#A78BFA" shape-rendering="crispEdges" opacity="0"><animate attributeName="opacity" begin="0.29s" dur="0.6s" from="0" to="1" fill="freeze"/></path>
<path d="M223.56 119.16h2.62v2.62h-2.62zM177.24 137.17h2.62v2.62h-2.62zM287.89 139.75h2.62v2.62h-2.62zM184.96 242.68h5.2v2.62h-5.2zM161.8 245.25h5.2v2.62h-5.2zM228.71 245.25h5.2v2.62h-5.2zM156.65 250.4h2.62v2.62h-2.62zM244.15 258.12h5.2v2.62h-5.2zM267.31 265.84h2.62v2.62h-2.62zM277.6 273.56h7.77v2.62h-7.77zM172.09 276.13h10.34v2.62h-10.34zM303.33 283.85h2.62v2.62h-2.62zM218.41 291.57h5.2v2.62h-5.2zM192.68 307.01h10.34v2.62h-10.34zM254.44 335.32h2.62v2.62h-2.62zM244.15 353.33h5.2v2.62h-5.2zM254.44 381.64h2.62v2.62h-2.62zM64.01 412.52h2.62v2.62h-2.62zM249.29 412.52h2.62v2.62h-2.62zM259.59 420.24h5.2v2.62h-5.2z" fill="#A78BFA" shape-rendering="crispEdges" opacity="0"><animate attributeName="opacity" begin="0.32s" dur="0.6s" from="0" to="1" fill="freeze"/></path>
<path d="M241.57 126.88h2.62v2.62h-2.62zM174.67 134.6h2.62v2.62h-2.62zM321.35 178.35h2.62v2.62h-2.62zM205.55 227.24h2.62v2.62h-2.62zM277.6 242.68h2.62v2.62h-2.62zM246.72 247.83h5.2v2.62h-5.2zM254.44 247.83h2.62v2.62h-2.62zM257.01 260.69h2.62v2.62h-2.62zM177.24 273.56h2.62v2.62h-2.62zM210.69 281.28h10.34v2.62h-10.34zM166.95 283.85h2.62v2.62h-2.62zM159.23 291.57h2.62v2.62h-2.62zM231.28 299.29h2.62v2.62h-2.62zM190.11 301.87h2.62v2.62h-2.62zM192.68 358.48h2.62v2.62h-2.62zM197.83 371.35h2.62v2.62h-2.62zM213.27 376.49h5.2v2.62h-5.2zM141.21 379.07h2.62v2.62h-2.62zM275.03 391.93h7.77v2.62h-7.77zM244.15 420.24h12.92v2.62h-12.92z" fill="#A78BFA" shape-rendering="crispEdges" opacity="0"><animate attributeName="opacity" begin="0.48s" dur="0.6s" from="0" to="1" fill="freeze"/></path>
<path d="M246.72 132.03h2.62v2.62h-2.62zM269.88 227.24h2.62v2.62h-2.62zM233.85 232.39h2.62v2.62h-2.62zM293.04 237.53h2.62v2.62h-2.62zM244.15 263.27h5.2v2.62h-5.2zM220.99 265.84h5.2v2.62h-5.2zM290.47 265.84h2.62v2.62h-2.62zM257.01 268.41h2.62v2.62h-2.62zM192.68 270.99h5.2v2.62h-5.2zM166.95 281.28h5.2v2.62h-5.2zM259.59 283.85h20.64v2.62h-20.64zM313.63 291.57h2.62v2.62h-2.62zM298.19 299.29h2.62v2.62h-2.62zM190.11 312.16h2.62v2.62h-2.62zM241.57 312.16h2.62v2.62h-2.62zM262.16 330.17h5.2v2.62h-5.2zM239 335.32h2.62v2.62h-2.62zM257.01 350.76h2.62v2.62h-2.62zM205.55 368.77h2.62v2.62h-2.62zM280.17 386.79h2.62v2.62h-2.62zM236.43 389.36h5.2v2.62h-5.2zM208.12 397.08h5.2v2.62h-5.2zM262.16 402.23h12.92v2.62h-12.92zM226.13 407.37h5.2v2.62h-5.2zM277.6 415.09h5.2v2.62h-5.2zM254.44 417.67h5.2v2.62h-5.2z" fill="#A78BFA" shape-rendering="crispEdges" opacity="0"><animate attributeName="opacity" begin="0.40s" dur="0.6s" from="0" to="1" fill="freeze"/></path>
<path d="M231.28 114.01h7.77v2.62h-7.77zM285.32 132.03h12.92v2.62h-12.92zM326.49 188.64h2.62v2.62h-2.62zM231.28 234.96h2.62v2.62h-2.62zM262.16 234.96h2.62v2.62h-2.62zM236.43 237.53h2.62v2.62h-2.62zM195.25 245.25h2.62v2.62h-2.62zM172.09 247.83h2.62v2.62h-2.62zM323.92 247.83h2.62v2.62h-2.62zM264.73 250.4h7.77v2.62h-7.77zM264.73 263.27h12.92v2.62h-12.92zM308.48 263.27h2.62v2.62h-2.62zM182.39 265.84h7.77v2.62h-7.77zM210.69 270.99h10.34v2.62h-10.34zM313.63 270.99h2.62v2.62h-2.62zM326.49 270.99h2.62v2.62h-2.62zM182.39 283.85h2.62v2.62h-2.62zM241.57 283.85h5.2v2.62h-5.2zM220.99 294.15h25.78v2.62h-25.78zM246.72 322.45h2.62v2.62h-2.62zM239 325.03h5.2v2.62h-5.2zM226.13 327.6h2.62v2.62h-2.62zM264.73 327.6h2.62v2.62h-2.62zM293.04 348.19h2.62v2.62h-2.62zM287.89 366.2h2.62v2.62h-2.62zM341.93 373.92h2.62v2.62h-2.62zM357.37 381.64h2.62v2.62h-2.62zM213.27 412.52h10.34v2.62h-10.34zM226.13 412.52h5.2v2.62h-5.2z" fill="#A78BFA" shape-rendering="crispEdges" opacity="0"><animate attributeName="opacity" begin="0.59s" dur="0.6s" from="0" to="1" fill="freeze"/></path>
<path d="M326.49 183.49h2.62v2.62h-2.62zM318.77 224.67h2.62v2.62h-2.62zM177.24 232.39h2.62v2.62h-2.62zM259.59 242.68h2.62v2.62h-2.62zM223.56 250.4h2.62v2.62h-2.62zM218.41 252.97h2.62v2.62h-2.62zM231.28 263.27h5.2v2.62h-5.2zM239 263.27h2.62v2.62h-2.62zM172.09 286.43h5.2v2.62h-5.2zM223.56 286.43h2.62v2.62h-2.62zM195.25 301.87h7.77v2.62h-7.77zM174.67 314.73h2.62v2.62h-2.62zM195.25 317.31h2.62v2.62h-2.62zM190.11 373.92h2.62v2.62h-2.62zM244.15 389.36h2.62v2.62h-2.62zM287.89 391.93h2.62v2.62h-2.62zM107.76 394.51h2.62v2.62h-2.62z" fill="#A78BFA" shape-rendering="crispEdges" opacity="0"><animate attributeName="opacity" begin="0.52s" dur="0.6s" from="0" to="1" fill="freeze"/></path>
<path d="M169.52 137.17h5.2v2.62h-5.2zM316.2 157.76h2.62v2.62h-2.62zM251.87 234.96h2.62v2.62h-2.62zM195.25 237.53h2.62v2.62h-2.62zM305.91 260.69h2.62v2.62h-2.62zM275.03 270.99h5.2v2.62h-5.2zM321.35 270.99h2.62v2.62h-2.62zM282.75 291.57h12.92v2.62h-12.92zM190.11 296.72h10.34v2.62h-10.34zM218.41 301.87h2.62v2.62h-2.62zM169.52 304.44h5.2v2.62h-5.2zM190.11 317.31h2.62v2.62h-2.62zM215.84 319.88h2.62v2.62h-2.62zM244.15 397.08h7.77v2.62h-7.77z" fill="#A78BFA" shape-rendering="crispEdges" opacity="0"><animate attributeName="opacity" begin="0.47s" dur="0.6s" from="0" to="1" fill="freeze"/></path>
<path d="M174.67 139.75h7.77v2.62h-7.77zM231.28 242.68h2.62v2.62h-2.62zM177.24 255.55h5.2v2.62h-5.2zM246.72 255.55h2.62v2.62h-2.62zM151.51 258.12h2.62v2.62h-2.62zM277.6 258.12h5.2v2.62h-5.2zM287.89 260.69h2.62v2.62h-2.62zM305.91 265.84h2.62v2.62h-2.62zM321.35 273.56h2.62v2.62h-2.62zM159.23 278.71h10.34v2.62h-10.34zM321.35 278.71h2.62v2.62h-2.62zM277.6 286.43h18.06v2.62h-18.06zM223.56 301.87h2.62v2.62h-2.62zM285.32 304.44h5.2v2.62h-5.2zM241.57 309.59h5.2v2.62h-5.2zM282.75 319.88h2.62v2.62h-2.62zM251.87 348.19h2.62v2.62h-2.62zM246.72 358.48h2.62v2.62h-2.62zM197.83 379.07h2.62v2.62h-2.62zM223.56 384.21h2.62v2.62h-2.62zM226.13 397.08h2.62v2.62h-2.62zM210.69 399.65h5.2v2.62h-5.2zM220.99 422.81h5.2v2.62h-5.2zM244.15 433.11h23.21v2.62h-23.21zM239 451.12h7.77v2.62h-7.77z" fill="#A78BFA" shape-rendering="crispEdges" opacity="0"><animate attributeName="opacity" begin="0.51s" dur="0.6s" from="0" to="1" fill="freeze"/></path>
<path d="M246.72 121.73h2.62v2.62h-2.62zM161.8 144.89h2.62v2.62h-2.62zM236.43 227.24h2.62v2.62h-2.62zM246.72 242.68h2.62v2.62h-2.62zM316.2 245.25h5.2v2.62h-5.2zM249.29 250.4h2.62v2.62h-2.62zM295.61 258.12h2.62v2.62h-2.62zM326.49 265.84h2.62v2.62h-2.62zM179.81 268.41h5.2v2.62h-5.2zM305.91 281.28h2.62v2.62h-2.62zM290.47 301.87h2.62v2.62h-2.62zM190.11 309.59h7.77v2.62h-7.77zM190.11 319.88h2.62v2.62h-2.62zM179.81 345.61h2.62v2.62h-2.62zM293.04 353.33h2.62v2.62h-2.62zM282.75 363.63h2.62v2.62h-2.62zM192.68 366.2h2.62v2.62h-2.62zM195.25 386.79h2.62v2.62h-2.62zM202.97 394.51h5.2v2.62h-5.2zM285.32 399.65h2.62v2.62h-2.62zM223.56 404.8h5.2v2.62h-5.2z" fill="#A78BFA" shape-rendering="crispEdges" opacity="0"><animate attributeName="opacity" begin="0.59s" dur="0.6s" from="0" to="1" fill="freeze"/></path>
<path d="M275.03 126.88h18.06v2.62h-18.06zM285.32 129.45h7.77v2.62h-7.77zM226.13 234.96h2.62v2.62h-2.62zM275.03 234.96h2.62v2.62h-2.62zM290.47 234.96h2.62v2.62h-2.62zM239 252.97h7.77v2.62h-7.77zM318.77 252.97h2.62v2.62h-2.62zM236.43 255.55h7.77v2.62h-7.77zM231.28 258.12h10.34v2.62h-10.34zM254.44 258.12h2.62v2.62h-2.62zM287.89 283.85h5.2v2.62h-5.2zM210.69 286.43h10.34v2.62h-10.34zM182.39 291.57h12.92v2.62h-12.92zM161.8 299.29h2.62v2.62h-2.62zM200.4 309.59h15.49v2.62h-15.49zM195.25 325.03h2.62v2.62h-2.62zM210.69 335.32h2.62v2.62h-2.62zM187.53 345.61h2.62v2.62h-2.62zM264.73 371.35h2.62v2.62h-2.62zM259.59 394.51h5.2v2.62h-5.2zM208.12 412.52h2.62v2.62h-2.62zM56.29 417.67h2.62v2.62h-2.62zM241.57 422.81h5.2v2.62h-5.2zM246.72 438.25h15.49v2.62h-15.49zM231.28 443.4h2.62v2.62h-2.62z" fill="#A78BFA" shape-rendering="crispEdges" opacity="0"><animate attributeName="opacity" begin="0.68s" dur="0.6s" from="0" to="1" fill="freeze"/></path>
<path d="M269.88 124.31h5.2v2.62h-5.2zM313.63 155.19h2.62v2.62h-2.62zM316.2 162.91h2.62v2.62h-2.62zM159.23 229.81h2.62v2.62h-2.62zM190.11 255.55h2.62v2.62h-2.62zM202.97 268.41h2.62v2.62h-2.62zM305.91 273.56h5.2v2.62h-5.2zM233.85 278.71h5.2v2.62h-5.2zM267.31 281.28h23.21v2.62h-23.21zM182.39 301.87h5.2v2.62h-5.2zM311.05 304.44h2.62v2.62h-2.62zM287.89 314.73h2.62v2.62h-2.62zM280.17 317.31h5.2v2.62h-5.2zM308.48 319.88h2.62v2.62h-2.62zM249.29 337.89h2.62v2.62h-2.62zM262.16 343.04h2.62v2.62h-2.62zM192.68 384.21h2.62v2.62h-2.62zM231.28 391.93h5.2v2.62h-5.2zM231.28 397.08h5.2v2.62h-5.2zM285.32 397.08h2.62v2.62h-2.62zM251.87 404.8h2.62v2.62h-2.62zM275.03 409.95h2.62v2.62h-2.62zM226.13 427.96h2.62v2.62h-2.62zM254.44 427.96h18.06v2.62h-18.06zM241.57 430.53h5.2v2.62h-5.2z" fill="#A78BFA" shape-rendering="crispEdges" opacity="0"><animate attributeName="opacity" begin="0.78s" dur="0.6s" from="0" to="1" fill="freeze"/></path>
<path d="M208.12 237.53h2.62v2.62h-2.62zM190.11 247.83h2.62v2.62h-2.62zM187.53 250.4h2.62v2.62h-2.62zM184.96 252.97h12.92v2.62h-12.92zM326.49 255.55h2.62v2.62h-2.62zM172.09 268.41h5.2v2.62h-5.2zM226.13 268.41h5.2v2.62h-5.2zM287.89 278.71h5.2v2.62h-5.2zM249.29 283.85h2.62v2.62h-2.62zM233.85 291.57h2.62v2.62h-2.62zM192.68 294.15h15.49v2.62h-15.49zM300.76 296.72h2.62v2.62h-2.62zM177.24 299.29h5.2v2.62h-5.2zM205.55 301.87h2.62v2.62h-2.62zM246.72 304.44h2.62v2.62h-2.62zM282.75 312.16h5.2v2.62h-5.2zM231.28 317.31h2.62v2.62h-2.62zM226.13 322.45h2.62v2.62h-2.62zM264.73 337.89h2.62v2.62h-2.62zM218.41 343.04h2.62v2.62h-2.62zM251.87 343.04h7.77v2.62h-7.77zM190.11 350.76h5.2v2.62h-5.2zM187.53 368.77h5.2v2.62h-5.2zM236.43 379.07h10.34v2.62h-10.34zM282.75 389.36h2.62v2.62h-2.62zM205.55 391.93h7.77v2.62h-7.77zM94.89 399.65h2.62v2.62h-2.62zM269.88 417.67h2.62v2.62h-2.62zM233.85 422.81h5.2v2.62h-5.2zM236.43 438.25h7.77v2.62h-7.77z" fill="#A78BFA" shape-rendering="crispEdges" opacity="0"><animate attributeName="opacity" begin="0.62s" dur="0.6s" from="0" to="1" fill="freeze"/></path>
<path d="M208.12 216.95h2.62v2.62h-2.62zM223.56 232.39h2.62v2.62h-2.62zM298.19 232.39h2.62v2.62h-2.62zM313.63 255.55h2.62v2.62h-2.62zM154.08 276.13h2.62v2.62h-2.62zM177.24 278.71h2.62v2.62h-2.62zM239 291.57h7.77v2.62h-7.77zM298.19 291.57h2.62v2.62h-2.62zM323.92 294.15h2.62v2.62h-2.62zM251.87 296.72h5.2v2.62h-5.2zM285.32 299.29h2.62v2.62h-2.62zM179.81 304.44h5.2v2.62h-5.2zM200.4 317.31h5.2v2.62h-5.2zM251.87 319.88h2.62v2.62h-2.62zM223.56 353.33h5.2v2.62h-5.2zM205.55 363.63h2.62v2.62h-2.62zM329.07 368.77h2.62v2.62h-2.62zM231.28 381.64h2.62v2.62h-2.62zM246.72 381.64h2.62v2.62h-2.62zM197.83 384.21h2.62v2.62h-2.62zM89.75 402.23h2.62v2.62h-2.62zM233.85 402.23h7.77v2.62h-7.77zM239 404.8h5.2v2.62h-5.2zM259.59 425.39h2.62v2.62h-2.62z" fill="#A78BFA" shape-rendering="crispEdges" opacity="0"><animate attributeName="opacity" begin="0.71s" dur="0.6s" from="0" to="1" fill="freeze"/></path>
<path d="M251.87 132.03h2.62v2.62h-2.62zM151.51 175.77h2.62v2.62h-2.62zM236.43 222.09h2.62v2.62h-2.62zM262.16 227.24h2.62v2.62h-2.62zM213.27 237.53h7.77v2.62h-7.77zM187.53 268.41h5.2v2.62h-5.2zM305.91 289h2.62v2.62h-2.62zM295.61 301.87h2.62v2.62h-2.62zM264.73 314.73h2.62v2.62h-2.62zM308.48 314.73h2.62v2.62h-2.62zM231.28 327.6h7.77v2.62h-7.77zM177.24 348.19h2.62v2.62h-2.62zM195.25 355.91h2.62v2.62h-2.62zM287.89 355.91h2.62v2.62h-2.62zM285.32 361.05h2.62v2.62h-2.62zM231.28 379.07h2.62v2.62h-2.62zM275.03 381.64h7.77v2.62h-7.77zM195.25 389.36h5.2v2.62h-5.2zM272.45 389.36h2.62v2.62h-2.62zM246.72 453.69h5.2v2.62h-5.2z" fill="#A78BFA" shape-rendering="crispEdges" opacity="0"><animate attributeName="opacity" begin="0.70s" dur="0.6s" from="0" to="1" fill="freeze"/></path>
<path d="M226.13 134.6h2.62v2.62h-2.62zM164.37 155.19h5.2v2.62h-5.2zM148.93 168.05h5.2v2.62h-5.2zM223.56 219.52h2.62v2.62h-2.62zM305.91 247.83h2.62v2.62h-2.62zM329.07 250.4h2.62v2.62h-2.62zM323.92 281.28h2.62v2.62h-2.62zM241.57 301.87h2.62v2.62h-2.62zM254.44 301.87h2.62v2.62h-2.62zM179.81 309.59h2.62v2.62h-2.62zM184.96 319.88h2.62v2.62h-2.62zM285.32 322.45h2.62v2.62h-2.62zM177.24 325.03h2.62v2.62h-2.62zM233.85 350.76h2.62v2.62h-2.62zM282.75 358.48h2.62v2.62h-2.62zM280.17 373.92h2.62v2.62h-2.62zM277.6 389.36h2.62v2.62h-2.62zM239 391.93h2.62v2.62h-2.62zM413.99 404.8h2.62v2.62h-2.62zM249.29 417.67h2.62v2.62h-2.62zM275.03 420.24h2.62v2.62h-2.62zM239 425.39h5.2v2.62h-5.2zM226.13 433.11h2.62v2.62h-2.62z" fill="#A78BFA" shape-rendering="crispEdges" opacity="0"><animate attributeName="opacity" begin="0.92s" dur="0.6s" from="0" to="1" fill="freeze"/></path>
<path d="M239 111.44h5.2v2.62h-5.2zM156.65 150.04h15.49v2.62h-15.49zM146.36 209.23h2.62v2.62h-2.62zM287.89 237.53h2.62v2.62h-2.62zM218.41 268.41h5.2v2.62h-5.2zM205.55 273.56h10.34v2.62h-10.34zM293.04 276.13h7.77v2.62h-7.77zM246.72 281.28h5.2v2.62h-5.2zM303.33 286.43h2.62v2.62h-2.62zM300.76 294.15h2.62v2.62h-2.62zM269.88 317.31h2.62v2.62h-2.62zM197.83 327.6h5.2v2.62h-5.2zM205.55 376.49h5.2v2.62h-5.2zM267.31 376.49h2.62v2.62h-2.62zM218.41 384.21h2.62v2.62h-2.62zM280.17 397.08h2.62v2.62h-2.62zM264.73 425.39h2.62v2.62h-2.62z" fill="#A78BFA" shape-rendering="crispEdges" opacity="0"><animate attributeName="opacity" begin="0.75s" dur="0.6s" from="0" to="1" fill="freeze"/></path>
<path d="M148.93 173.2h2.62v2.62h-2.62zM143.79 188.64h2.62v2.62h-2.62zM321.35 209.23h10.34v2.62h-10.34zM295.61 242.68h2.62v2.62h-2.62zM174.67 250.4h5.2v2.62h-5.2zM295.61 252.97h2.62v2.62h-2.62zM290.47 258.12h2.62v2.62h-2.62zM156.65 263.27h12.92v2.62h-12.92zM257.01 286.43h10.34v2.62h-10.34zM177.24 289h7.77v2.62h-7.77zM290.47 289h2.62v2.62h-2.62zM251.87 299.29h2.62v2.62h-2.62zM218.41 309.59h2.62v2.62h-2.62zM246.72 317.31h2.62v2.62h-2.62zM228.71 319.88h2.62v2.62h-2.62zM298.19 348.19h2.62v2.62h-2.62zM249.29 376.49h2.62v2.62h-2.62zM282.75 376.49h2.62v2.62h-2.62zM264.73 389.36h5.2v2.62h-5.2zM282.75 394.51h2.62v2.62h-2.62zM254.44 397.08h7.77v2.62h-7.77zM202.97 402.23h2.62v2.62h-2.62zM231.28 445.97h5.2v2.62h-5.2z" fill="#A78BFA" shape-rendering="crispEdges" opacity="0"><animate attributeName="opacity" begin="0.76s" dur="0.6s" from="0" to="1" fill="freeze"/></path>
<path d="M184.96 211.8h2.62v2.62h-2.62zM208.12 224.67h2.62v2.62h-2.62zM275.03 224.67h2.62v2.62h-2.62zM192.68 234.96h2.62v2.62h-2.62zM220.99 247.83h2.62v2.62h-2.62zM223.56 252.97h5.2v2.62h-5.2zM264.73 255.55h2.62v2.62h-2.62zM174.67 258.12h2.62v2.62h-2.62zM213.27 258.12h2.62v2.62h-2.62zM197.83 260.69h5.2v2.62h-5.2zM174.67 265.84h5.2v2.62h-5.2zM287.89 268.41h5.2v2.62h-5.2zM298.19 286.43h2.62v2.62h-2.62zM187.53 304.44h10.34v2.62h-10.34zM205.55 312.16h2.62v2.62h-2.62zM195.25 319.88h7.77v2.62h-7.77zM192.68 376.49h2.62v2.62h-2.62z" fill="#A78BFA" shape-rendering="crispEdges" opacity="0"><animate attributeName="opacity" begin="0.79s" dur="0.6s" from="0" to="1" fill="freeze"/></path>
<path d="M231.28 119.16h18.06v2.62h-18.06zM187.53 139.75h2.62v2.62h-2.62zM156.65 155.19h2.62v2.62h-2.62zM251.87 237.53h7.77v2.62h-7.77zM236.43 245.25h2.62v2.62h-2.62zM236.43 247.83h2.62v2.62h-2.62zM259.59 250.4h2.62v2.62h-2.62zM208.12 252.97h2.62v2.62h-2.62zM218.41 258.12h2.62v2.62h-2.62zM218.41 283.85h20.64v2.62h-20.64zM159.23 289h2.62v2.62h-2.62zM236.43 317.31h2.62v2.62h-2.62zM249.29 335.32h2.62v2.62h-2.62zM195.25 368.77h7.77v2.62h-7.77zM210.69 371.35h2.62v2.62h-2.62zM251.87 379.07h2.62v2.62h-2.62zM195.25 381.64h7.77v2.62h-7.77zM233.85 384.21h2.62v2.62h-2.62zM395.97 397.08h2.62v2.62h-2.62zM257.01 402.23h2.62v2.62h-2.62zM251.87 440.83h7.77v2.62h-7.77zM251.87 445.97h5.2v2.62h-5.2z" fill="#A78BFA" shape-rendering="crispEdges" opacity="0"><animate attributeName="opacity" begin="0.90s" dur="0.6s" from="0" to="1" fill="freeze"/></path>
<path d="M259.59 222.09h2.62v2.62h-2.62zM220.99 234.96h2.62v2.62h-2.62zM161.8 247.83h5.2v2.62h-5.2zM267.31 260.69h2.62v2.62h-2.62zM264.73 289h23.21v2.62h-23.21zM223.56 314.73h2.62v2.62h-2.62zM233.85 319.88h2.62v2.62h-2.62zM305.91 325.03h2.62v2.62h-2.62zM262.16 335.32h2.62v2.62h-2.62zM251.87 345.61h2.62v2.62h-2.62zM277.6 363.63h2.62v2.62h-2.62zM197.83 376.49h5.2v2.62h-5.2zM269.88 379.07h5.2v2.62h-5.2zM259.59 399.65h2.62v2.62h-2.62zM401.12 399.65h2.62v2.62h-2.62zM257.01 404.8h5.2v2.62h-5.2zM228.71 422.81h2.62v2.62h-2.62z" fill="#A78BFA" shape-rendering="crispEdges" opacity="0"><animate attributeName="opacity" begin="1.06s" dur="0.6s" from="0" to="1" fill="freeze"/></path>
<path d="M241.57 114.01h2.62v2.62h-2.62zM259.59 129.45h5.2v2.62h-5.2zM174.67 229.81h2.62v2.62h-2.62zM210.69 229.81h2.62v2.62h-2.62zM208.12 232.39h2.62v2.62h-2.62zM316.2 240.11h2.62v2.62h-2.62zM161.8 242.68h5.2v2.62h-5.2zM174.67 242.68h2.62v2.62h-2.62zM179.81 242.68h2.62v2.62h-2.62zM210.69 242.68h2.62v2.62h-2.62zM215.84 255.55h2.62v2.62h-2.62zM190.11 263.27h2.62v2.62h-2.62zM200.4 263.27h2.62v2.62h-2.62zM223.56 281.28h5.2v2.62h-5.2zM308.48 283.85h2.62v2.62h-2.62zM251.87 286.43h2.62v2.62h-2.62zM210.69 294.15h7.77v2.62h-7.77zM290.47 307.01h2.62v2.62h-2.62zM195.25 312.16h7.77v2.62h-7.77zM251.87 322.45h2.62v2.62h-2.62zM269.88 322.45h2.62v2.62h-2.62zM334.21 371.35h2.62v2.62h-2.62zM269.88 373.92h2.62v2.62h-2.62zM349.65 376.49h2.62v2.62h-2.62zM264.73 379.07h2.62v2.62h-2.62zM277.6 384.21h2.62v2.62h-2.62zM215.84 391.93h7.77v2.62h-7.77zM267.31 391.93h5.2v2.62h-5.2zM264.73 404.8h2.62v2.62h-2.62zM210.69 409.95h2.62v2.62h-2.62zM246.72 448.55h7.77v2.62h-7.77z" fill="#A78BFA" shape-rendering="crispEdges" opacity="0"><animate attributeName="opacity" begin="1.08s" dur="0.6s" from="0" to="1" fill="freeze"/></path>
<path d="M226.13 124.31h2.62v2.62h-2.62zM257.01 132.03h2.62v2.62h-2.62zM321.35 183.49h2.62v2.62h-2.62zM187.53 193.79h2.62v2.62h-2.62zM172.09 234.96h2.62v2.62h-2.62zM241.57 237.53h2.62v2.62h-2.62zM244.15 268.41h5.2v2.62h-5.2zM156.65 270.99h2.62v2.62h-2.62zM174.67 281.28h33.5v2.62h-33.5zM269.88 286.43h5.2v2.62h-5.2zM264.73 299.29h2.62v2.62h-2.62zM146.36 376.49h2.62v2.62h-2.62zM251.87 386.79h2.62v2.62h-2.62zM257.01 389.36h5.2v2.62h-5.2zM251.87 399.65h5.2v2.62h-5.2zM264.73 399.65h2.62v2.62h-2.62zM259.59 430.53h5.2v2.62h-5.2zM226.13 438.25h2.62v2.62h-2.62zM244.15 445.97h5.2v2.62h-5.2z" fill="#A78BFA" shape-rendering="crispEdges" opacity="0"><animate attributeName="opacity" begin="1.08s" dur="0.6s" from="0" to="1" fill="freeze"/></path>
<path d="M218.41 124.31h2.62v2.62h-2.62zM208.12 126.88h2.62v2.62h-2.62zM156.65 147.47h15.49v2.62h-15.49zM257.01 232.39h2.62v2.62h-2.62zM313.63 260.69h5.2v2.62h-5.2zM295.61 265.84h2.62v2.62h-2.62zM293.04 281.28h5.2v2.62h-5.2zM233.85 286.43h10.34v2.62h-10.34zM323.92 291.57h2.62v2.62h-2.62zM202.97 296.72h10.34v2.62h-10.34zM226.13 307.01h2.62v2.62h-2.62zM290.47 312.16h2.62v2.62h-2.62zM220.99 330.17h5.2v2.62h-5.2zM215.84 381.64h7.77v2.62h-7.77zM202.97 384.21h5.2v2.62h-5.2zM244.15 384.21h2.62v2.62h-2.62zM200.4 397.08h5.2v2.62h-5.2zM282.75 404.8h2.62v2.62h-2.62zM239 407.37h2.62v2.62h-2.62zM218.41 420.24h5.2v2.62h-5.2zM233.85 440.83h5.2v2.62h-5.2z" fill="#A78BFA" shape-rendering="crispEdges" opacity="0"><animate attributeName="opacity" begin="1.17s" dur="0.6s" from="0" to="1" fill="freeze"/></path>
<path d="M146.36 175.77h2.62v2.62h-2.62zM228.71 222.09h2.62v2.62h-2.62zM184.96 232.39h2.62v2.62h-2.62zM254.44 242.68h2.62v2.62h-2.62zM179.81 258.12h5.2v2.62h-5.2zM259.59 270.99h5.2v2.62h-5.2zM195.25 276.13h12.92v2.62h-12.92zM282.75 276.13h7.77v2.62h-7.77zM182.39 278.71h5.2v2.62h-5.2zM161.8 281.28h2.62v2.62h-2.62zM231.28 281.28h12.92v2.62h-12.92zM244.15 289h5.2v2.62h-5.2zM300.76 301.87h2.62v2.62h-2.62zM182.39 307.01h7.77v2.62h-7.77zM218.41 317.31h5.2v2.62h-5.2zM272.45 335.32h2.62v2.62h-2.62zM200.4 363.63h2.62v2.62h-2.62zM215.84 373.92h2.62v2.62h-2.62zM257.01 386.79h2.62v2.62h-2.62zM267.31 394.51h2.62v2.62h-2.62zM102.61 397.08h2.62v2.62h-2.62zM277.6 404.8h2.62v2.62h-2.62zM269.88 409.95h2.62v2.62h-2.62z" fill="#A78BFA" shape-rendering="crispEdges" opacity="0"><animate attributeName="opacity" begin="1.19s" dur="0.6s" from="0" to="1" fill="freeze"/></path>
<path d="M300.76 150.04h2.62v2.62h-2.62zM311.05 152.61h2.62v2.62h-2.62zM210.69 214.37h2.62v2.62h-2.62zM267.31 224.67h2.62v2.62h-2.62zM218.41 240.11h5.2v2.62h-5.2zM285.32 247.83h2.62v2.62h-2.62zM195.25 263.27h2.62v2.62h-2.62zM290.47 263.27h5.2v2.62h-5.2zM303.33 268.41h2.62v2.62h-2.62zM282.75 283.85h2.62v2.62h-2.62zM228.71 289h12.92v2.62h-12.92zM236.43 299.29h5.2v2.62h-5.2zM184.96 317.31h2.62v2.62h-2.62zM300.76 337.89h5.2v2.62h-5.2zM228.71 345.61h5.2v2.62h-5.2zM295.61 355.91h2.62v2.62h-2.62zM313.63 355.91h2.62v2.62h-2.62zM172.09 358.48h2.62v2.62h-2.62zM290.47 361.05h2.62v2.62h-2.62zM262.16 409.95h5.2v2.62h-5.2zM220.99 415.09h5.2v2.62h-5.2zM246.72 425.39h10.34v2.62h-10.34z" fill="#A78BFA" shape-rendering="crispEdges" opacity="0"><animate attributeName="opacity" begin="1.08s" dur="0.6s" from="0" to="1" fill="freeze"/></path>
<path d="M239 216.95h2.62v2.62h-2.62zM197.83 242.68h2.62v2.62h-2.62zM241.57 247.83h2.62v2.62h-2.62zM290.47 247.83h2.62v2.62h-2.62zM300.76 247.83h2.62v2.62h-2.62zM192.68 250.4h18.06v2.62h-18.06zM321.35 255.55h2.62v2.62h-2.62zM259.59 258.12h10.34v2.62h-10.34zM300.76 258.12h2.62v2.62h-2.62zM161.8 260.69h7.77v2.62h-7.77zM295.61 260.69h2.62v2.62h-2.62zM156.65 265.84h2.62v2.62h-2.62zM154.08 273.56h2.62v2.62h-2.62zM251.87 273.56h2.62v2.62h-2.62zM218.41 278.71h5.2v2.62h-5.2zM298.19 304.44h2.62v2.62h-2.62zM246.72 319.88h2.62v2.62h-2.62zM213.27 343.04h2.62v2.62h-2.62zM262.16 345.61h2.62v2.62h-2.62zM174.67 353.33h2.62v2.62h-2.62zM197.83 361.05h5.2v2.62h-5.2zM249.29 389.36h5.2v2.62h-5.2zM244.15 391.93h7.77v2.62h-7.77zM275.03 407.37h2.62v2.62h-2.62zM231.28 427.96h2.62v2.62h-2.62z" fill="#A78BFA" shape-rendering="crispEdges" opacity="0"><animate attributeName="opacity" begin="1.07s" dur="0.6s" from="0" to="1" fill="freeze"/></path>
<path d="M166.95 144.89h2.62v2.62h-2.62zM148.93 170.63h2.62v2.62h-2.62zM329.07 191.21h2.62v2.62h-2.62zM215.84 211.8h2.62v2.62h-2.62zM215.84 227.24h2.62v2.62h-2.62zM267.31 229.81h2.62v2.62h-2.62zM161.8 237.53h2.62v2.62h-2.62zM269.88 247.83h12.92v2.62h-12.92zM257.01 255.55h2.62v2.62h-2.62zM161.8 286.43h5.2v2.62h-5.2zM290.47 294.15h2.62v2.62h-2.62zM244.15 307.01h2.62v2.62h-2.62zM218.41 327.6h5.2v2.62h-5.2zM254.44 337.89h7.77v2.62h-7.77zM236.43 345.61h5.2v2.62h-5.2zM192.68 353.33h2.62v2.62h-2.62zM190.11 355.91h2.62v2.62h-2.62zM275.03 371.35h2.62v2.62h-2.62zM293.04 371.35h2.62v2.62h-2.62zM200.4 373.92h5.2v2.62h-5.2zM202.97 389.36h2.62v2.62h-2.62zM246.72 394.51h2.62v2.62h-2.62zM228.71 402.23h2.62v2.62h-2.62zM419.13 407.37h2.62v2.62h-2.62zM220.99 435.68h15.49v2.62h-15.49zM236.43 443.4h7.77v2.62h-7.77z" fill="#A78BFA" shape-rendering="crispEdges" opacity="0"><animate attributeName="opacity" begin="1.29s" dur="0.6s" from="0" to="1" fill="freeze"/></path>
<path d="M239 121.73h2.62v2.62h-2.62zM146.36 180.92h5.2v2.62h-5.2zM161.8 240.11h2.62v2.62h-2.62zM287.89 252.97h2.62v2.62h-2.62zM195.25 268.41h5.2v2.62h-5.2zM184.96 270.99h5.2v2.62h-5.2zM231.28 270.99h12.92v2.62h-12.92zM184.96 276.13h7.77v2.62h-7.77zM313.63 276.13h2.62v2.62h-2.62zM154.08 278.71h2.62v2.62h-2.62zM190.11 278.71h7.77v2.62h-7.77zM226.13 278.71h5.2v2.62h-5.2zM246.72 286.43h2.62v2.62h-2.62zM316.2 289h2.62v2.62h-2.62zM264.73 294.15h7.77v2.62h-7.77zM311.05 301.87h2.62v2.62h-2.62zM272.45 304.44h2.62v2.62h-2.62zM293.04 304.44h2.62v2.62h-2.62zM298.19 307.01h2.62v2.62h-2.62zM251.87 314.73h2.62v2.62h-2.62zM259.59 319.88h2.62v2.62h-2.62zM192.68 322.45h2.62v2.62h-2.62zM202.97 330.17h5.2v2.62h-5.2zM254.44 330.17h2.62v2.62h-2.62zM195.25 332.75h2.62v2.62h-2.62zM218.41 340.47h7.77v2.62h-7.77zM192.68 363.63h5.2v2.62h-5.2zM285.32 368.77h2.62v2.62h-2.62zM210.69 384.21h5.2v2.62h-5.2zM210.69 394.51h7.77v2.62h-7.77zM282.75 402.23h2.62v2.62h-2.62z" fill="#A78BFA" shape-rendering="crispEdges" opacity="0"><animate attributeName="opacity" begin="1.27s" dur="0.6s" from="0" to="1" fill="freeze"/></path>
<path d="M316.2 168.05h2.62v2.62h-2.62zM228.71 250.4h12.92v2.62h-12.92zM254.44 250.4h2.62v2.62h-2.62zM318.77 250.4h2.62v2.62h-2.62zM200.4 252.97h5.2v2.62h-5.2zM251.87 255.55h2.62v2.62h-2.62zM275.03 265.84h2.62v2.62h-2.62zM151.51 270.99h2.62v2.62h-2.62zM223.56 270.99h5.2v2.62h-5.2zM226.13 273.56h10.34v2.62h-10.34zM239 273.56h2.62v2.62h-2.62zM251.87 278.71h5.2v2.62h-5.2zM295.61 289h2.62v2.62h-2.62zM161.8 301.87h10.34v2.62h-10.34zM259.59 301.87h18.06v2.62h-18.06zM220.99 325.03h2.62v2.62h-2.62zM280.17 330.17h2.62v2.62h-2.62zM262.16 340.47h5.2v2.62h-5.2zM239 355.91h2.62v2.62h-2.62zM164.37 368.77h2.62v2.62h-2.62zM277.6 399.65h2.62v2.62h-2.62zM408.84 402.23h2.62v2.62h-2.62zM246.72 409.95h5.2v2.62h-5.2zM233.85 412.52h2.62v2.62h-2.62zM275.03 417.67h5.2v2.62h-5.2zM51.15 422.81h2.62v2.62h-2.62zM236.43 427.96h15.49v2.62h-15.49z" fill="#A78BFA" shape-rendering="crispEdges" opacity="0"><animate attributeName="opacity" begin="1.13s" dur="0.6s" from="0" to="1" fill="freeze"/></path>
<path d="M218.41 119.16h2.62v2.62h-2.62zM169.52 134.6h2.62v2.62h-2.62zM303.33 144.89h2.62v2.62h-2.62zM246.72 237.53h2.62v2.62h-2.62zM215.84 245.25h2.62v2.62h-2.62zM287.89 250.4h2.62v2.62h-2.62zM249.29 252.97h2.62v2.62h-2.62zM259.59 252.97h5.2v2.62h-5.2zM233.85 268.41h7.77v2.62h-7.77zM200.4 270.99h7.77v2.62h-7.77zM200.4 278.71h2.62v2.62h-2.62zM249.29 294.15h2.62v2.62h-2.62zM269.88 307.01h2.62v2.62h-2.62zM223.56 337.89h7.77v2.62h-7.77zM236.43 340.47h2.62v2.62h-2.62zM215.84 425.39h20.64v2.62h-20.64z" fill="#A78BFA" shape-rendering="crispEdges" opacity="0"><animate attributeName="opacity" begin="1.32s" dur="0.6s" from="0" to="1" fill="freeze"/></path>
<path d="M187.53 126.88h2.62v2.62h-2.62zM179.81 132.03h7.77v2.62h-7.77zM269.88 134.6h2.62v2.62h-2.62zM295.61 139.75h2.62v2.62h-2.62zM143.79 201.51h2.62v2.62h-2.62zM215.84 232.39h2.62v2.62h-2.62zM293.04 232.39h2.62v2.62h-2.62zM300.76 240.11h2.62v2.62h-2.62zM192.68 265.84h2.62v2.62h-2.62zM197.83 265.84h20.64v2.62h-20.64zM182.39 273.56h5.2v2.62h-5.2zM244.15 273.56h5.2v2.62h-5.2zM295.61 273.56h2.62v2.62h-2.62zM210.69 276.13h18.06v2.62h-18.06zM300.76 278.71h2.62v2.62h-2.62zM187.53 289h38.65v2.62h-38.65zM257.01 299.29h2.62v2.62h-2.62zM277.6 304.44h5.2v2.62h-5.2zM254.44 317.31h2.62v2.62h-2.62zM282.75 335.32h2.62v2.62h-2.62zM228.71 358.48h2.62v2.62h-2.62zM359.95 384.21h5.2v2.62h-5.2zM125.77 386.79h2.62v2.62h-2.62zM231.28 389.36h2.62v2.62h-2.62zM254.44 391.93h5.2v2.62h-5.2zM251.87 394.51h2.62v2.62h-2.62zM215.84 397.08h7.77v2.62h-7.77zM264.73 397.08h7.77v2.62h-7.77zM241.57 415.09h2.62v2.62h-2.62zM215.84 430.53h23.21v2.62h-23.21z" fill="#A78BFA" shape-rendering="crispEdges" opacity="0"><animate attributeName="opacity" begin="1.28s" dur="0.6s" from="0" to="1" fill="freeze"/></path>
<path d="M231.28 126.88h2.62v2.62h-2.62zM228.71 129.45h2.62v2.62h-2.62zM210.69 134.6h2.62v2.62h-2.62zM287.89 137.17h7.77v2.62h-7.77zM287.89 142.32h2.62v2.62h-2.62zM154.08 165.48h2.62v2.62h-2.62zM326.49 201.51h5.2v2.62h-5.2zM318.77 219.52h2.62v2.62h-2.62zM282.75 237.53h2.62v2.62h-2.62zM179.81 245.25h5.2v2.62h-5.2zM275.03 294.15h12.92v2.62h-12.92zM200.4 332.75h2.62v2.62h-2.62zM249.29 350.76h2.62v2.62h-2.62zM205.55 399.65h2.62v2.62h-2.62zM244.15 402.23h10.34v2.62h-10.34zM210.69 417.67h2.62v2.62h-2.62z" fill="#A78BFA" shape-rendering="crispEdges" opacity="0"><animate attributeName="opacity" begin="1.31s" dur="0.6s" from="0" to="1" fill="freeze"/></path>
<path d="M251.87 119.16h2.62v2.62h-2.62zM187.53 129.45h2.62v2.62h-2.62zM246.72 129.45h2.62v2.62h-2.62zM282.75 137.17h2.62v2.62h-2.62zM308.48 150.04h2.62v2.62h-2.62zM228.71 211.8h2.62v2.62h-2.62zM182.39 237.53h5.2v2.62h-5.2zM280.17 263.27h2.62v2.62h-2.62zM213.27 268.41h2.62v2.62h-2.62zM318.77 268.41h2.62v2.62h-2.62zM257.01 322.45h2.62v2.62h-2.62zM213.27 325.03h5.2v2.62h-5.2zM264.73 332.75h5.2v2.62h-5.2zM202.97 366.2h5.2v2.62h-5.2zM285.32 379.07h2.62v2.62h-2.62zM280.17 407.37h2.62v2.62h-2.62zM213.27 422.81h5.2v2.62h-5.2z" fill="#A78BFA" shape-rendering="crispEdges" opacity="0"><animate attributeName="opacity" begin="1.33s" dur="0.6s" from="0" to="1" fill="freeze"/></path>
<path d="M321.35 175.77h2.62v2.62h-2.62zM195.25 211.8h2.62v2.62h-2.62zM303.33 242.68h2.62v2.62h-2.62zM226.13 247.83h2.62v2.62h-2.62zM164.37 258.12h5.2v2.62h-5.2zM151.51 265.84h2.62v2.62h-2.62zM282.75 270.99h5.2v2.62h-5.2zM326.49 276.13h2.62v2.62h-2.62zM316.2 296.72h2.62v2.62h-2.62zM282.75 314.73h2.62v2.62h-2.62zM290.47 325.03h2.62v2.62h-2.62zM262.16 348.19h2.62v2.62h-2.62zM210.69 368.77h2.62v2.62h-2.62zM254.44 422.81h15.49v2.62h-15.49z" fill="#A78BFA" shape-rendering="crispEdges" opacity="0"><animate attributeName="opacity" begin="1.32s" dur="0.6s" from="0" to="1" fill="freeze"/></path>
<path d="M156.65 144.89h2.62v2.62h-2.62zM197.83 227.24h2.62v2.62h-2.62zM267.31 237.53h2.62v2.62h-2.62zM172.09 240.11h7.77v2.62h-7.77zM241.57 245.25h5.2v2.62h-5.2zM323.92 245.25h2.62v2.62h-2.62zM323.92 252.97h2.62v2.62h-2.62zM305.91 258.12h2.62v2.62h-2.62zM323.92 258.12h2.62v2.62h-2.62zM321.35 263.27h5.2v2.62h-5.2zM159.23 273.56h10.34v2.62h-10.34zM303.33 276.13h2.62v2.62h-2.62zM300.76 289h2.62v2.62h-2.62zM290.47 299.29h5.2v2.62h-5.2zM251.87 327.6h2.62v2.62h-2.62zM220.99 348.19h10.34v2.62h-10.34zM239 350.76h2.62v2.62h-2.62zM262.16 386.79h2.62v2.62h-2.62z" fill="#A78BFA" shape-rendering="crispEdges" opacity="0"><animate attributeName="opacity" begin="1.32s" dur="0.6s" from="0" to="1" fill="freeze"/></path>
<path d="M174.67 129.45h5.2v2.62h-5.2zM182.39 129.45h2.62v2.62h-2.62zM169.52 139.75h2.62v2.62h-2.62zM205.55 242.68h2.62v2.62h-2.62zM177.24 247.83h5.2v2.62h-5.2zM303.33 252.97h2.62v2.62h-2.62zM151.51 263.27h2.62v2.62h-2.62zM264.73 296.72h12.92v2.62h-12.92zM246.72 301.87h2.62v2.62h-2.62zM182.39 312.16h5.2v2.62h-5.2zM257.01 312.16h2.62v2.62h-2.62zM187.53 325.03h5.2v2.62h-5.2zM213.27 330.17h5.2v2.62h-5.2zM244.15 335.32h2.62v2.62h-2.62zM182.39 337.89h2.62v2.62h-2.62zM210.69 337.89h10.34v2.62h-10.34zM233.85 348.19h5.2v2.62h-5.2zM280.17 368.77h2.62v2.62h-2.62zM285.32 381.64h2.62v2.62h-2.62zM272.45 384.21h2.62v2.62h-2.62zM82.03 404.8h2.62v2.62h-2.62zM262.16 417.67h5.2v2.62h-5.2zM208.12 420.24h7.77v2.62h-7.77z" fill="#A78BFA" shape-rendering="crispEdges" opacity="0"><animate attributeName="opacity" begin="1.41s" dur="0.6s" from="0" to="1" fill="freeze"/></path>
<path d="M246.72 114.01h2.62v2.62h-2.62zM264.73 219.52h2.62v2.62h-2.62zM182.39 240.11h2.62v2.62h-2.62zM154.08 252.97h2.62v2.62h-2.62zM182.39 260.69h5.2v2.62h-5.2zM220.99 260.69h2.62v2.62h-2.62zM303.33 263.27h2.62v2.62h-2.62zM259.59 265.84h5.2v2.62h-5.2zM195.25 283.85h5.2v2.62h-5.2zM218.41 307.01h5.2v2.62h-5.2zM267.31 319.88h2.62v2.62h-2.62zM257.01 327.6h5.2v2.62h-5.2zM202.97 335.32h5.2v2.62h-5.2zM213.27 345.61h12.92v2.62h-12.92zM241.57 348.19h7.77v2.62h-7.77zM210.69 350.76h2.62v2.62h-2.62zM285.32 386.79h2.62v2.62h-2.62zM197.83 391.93h5.2v2.62h-5.2zM226.13 391.93h2.62v2.62h-2.62zM383.11 391.93h2.62v2.62h-2.62zM272.45 404.8h2.62v2.62h-2.62zM275.03 412.52h2.62v2.62h-2.62zM233.85 417.67h2.62v2.62h-2.62zM269.88 425.39h2.62v2.62h-2.62zM220.99 433.11h2.62v2.62h-2.62zM257.01 435.68h5.2v2.62h-5.2z" fill="#A78BFA" shape-rendering="crispEdges" opacity="0"><animate attributeName="opacity" begin="1.46s" dur="0.6s" from="0" to="1" fill="freeze"/></path>
<path d="M143.79 196.36h2.62v2.62h-2.62zM321.35 216.95h5.2v2.62h-5.2zM156.65 224.67h2.62v2.62h-2.62zM285.32 234.96h2.62v2.62h-2.62zM249.29 260.69h5.2v2.62h-5.2zM161.8 265.84h5.2v2.62h-5.2zM308.48 268.41h2.62v2.62h-2.62zM262.16 281.28h2.62v2.62h-2.62zM316.2 281.28h2.62v2.62h-2.62zM202.97 283.85h12.92v2.62h-12.92zM179.81 286.43h10.34v2.62h-10.34zM205.55 307.01h2.62v2.62h-2.62zM233.85 307.01h7.77v2.62h-7.77zM202.97 314.73h5.2v2.62h-5.2zM259.59 314.73h2.62v2.62h-2.62zM246.72 325.03h5.2v2.62h-5.2zM257.01 340.47h2.62v2.62h-2.62zM269.88 381.64h2.62v2.62h-2.62zM262.16 391.93h2.62v2.62h-2.62zM226.13 440.83h5.2v2.62h-5.2z" fill="#A78BFA" shape-rendering="crispEdges" opacity="0"><animate attributeName="opacity" begin="1.64s" dur="0.6s" from="0" to="1" fill="freeze"/></path>
<path d="M287.89 134.6h7.77v2.62h-7.77zM172.09 144.89h2.62v2.62h-2.62zM156.65 222.09h2.62v2.62h-2.62zM202.97 234.96h5.2v2.62h-5.2zM187.53 240.11h2.62v2.62h-2.62zM254.44 240.11h2.62v2.62h-2.62zM218.41 273.56h5.2v2.62h-5.2zM177.24 294.15h5.2v2.62h-5.2zM164.37 304.44h2.62v2.62h-2.62zM254.44 332.75h7.77v2.62h-7.77zM182.39 335.32h2.62v2.62h-2.62zM233.85 337.89h2.62v2.62h-2.62zM305.91 345.61h2.62v2.62h-2.62zM231.28 353.33h2.62v2.62h-2.62zM311.05 353.33h2.62v2.62h-2.62zM208.12 373.92h5.2v2.62h-5.2zM277.6 402.23h2.62v2.62h-2.62zM239 412.52h7.77v2.62h-7.77zM251.87 435.68h2.62v2.62h-2.62zM236.43 448.55h7.77v2.62h-7.77z" fill="#A78BFA" shape-rendering="crispEdges" opacity="0"><animate attributeName="opacity" begin="1.47s" dur="0.6s" from="0" to="1" fill="freeze"/></path>
<path d="M151.51 160.33h12.92v2.62h-12.92zM146.36 211.8h2.62v2.62h-2.62zM267.31 216.95h2.62v2.62h-2.62zM213.27 219.52h2.62v2.62h-2.62zM298.19 237.53h2.62v2.62h-2.62zM218.41 250.4h2.62v2.62h-2.62zM275.03 250.4h10.34v2.62h-10.34zM172.09 252.97h5.2v2.62h-5.2zM156.65 258.12h5.2v2.62h-5.2zM172.09 278.71h2.62v2.62h-2.62zM241.57 278.71h5.2v2.62h-5.2zM295.61 294.15h2.62v2.62h-2.62zM179.81 296.72h7.77v2.62h-7.77zM184.96 309.59h2.62v2.62h-2.62zM298.19 314.73h2.62v2.62h-2.62zM236.43 330.17h7.77v2.62h-7.77zM197.83 335.32h2.62v2.62h-2.62zM228.71 350.76h2.62v2.62h-2.62zM254.44 353.33h2.62v2.62h-2.62zM269.88 412.52h2.62v2.62h-2.62zM226.13 420.24h7.77v2.62h-7.77zM257.01 443.4h2.62v2.62h-2.62z" fill="#A78BFA" shape-rendering="crispEdges" opacity="0"><animate attributeName="opacity" begin="1.70s" dur="0.6s" from="0" to="1" fill="freeze"/></path>
<path d="M159.23 142.32h15.49v2.62h-15.49zM244.15 222.09h2.62v2.62h-2.62zM161.8 234.96h2.62v2.62h-2.62zM277.6 260.69h2.62v2.62h-2.62zM187.53 283.85h5.2v2.62h-5.2zM228.71 286.43h2.62v2.62h-2.62zM251.87 289h2.62v2.62h-2.62zM177.24 301.87h2.62v2.62h-2.62zM290.47 309.59h2.62v2.62h-2.62zM262.16 325.03h2.62v2.62h-2.62zM179.81 330.17h2.62v2.62h-2.62zM303.33 332.75h2.62v2.62h-2.62zM218.41 355.91h2.62v2.62h-2.62zM202.97 371.35h5.2v2.62h-5.2zM202.97 379.07h5.2v2.62h-5.2zM244.15 407.37h5.2v2.62h-5.2zM239 417.67h7.77v2.62h-7.77zM267.31 430.53h2.62v2.62h-2.62zM239 445.97h2.62v2.62h-2.62z" fill="#A78BFA" shape-rendering="crispEdges" opacity="0"><animate attributeName="opacity" begin="1.55s" dur="0.6s" from="0" to="1" fill="freeze"/></path>
<path d="M321.35 173.2h2.62v2.62h-2.62zM202.97 219.52h2.62v2.62h-2.62zM290.47 255.55h2.62v2.62h-2.62zM205.55 258.12h2.62v2.62h-2.62zM184.96 263.27h2.62v2.62h-2.62zM223.56 263.27h5.2v2.62h-5.2zM254.44 265.84h2.62v2.62h-2.62zM172.09 273.56h2.62v2.62h-2.62zM321.35 286.43h2.62v2.62h-2.62zM267.31 304.44h2.62v2.62h-2.62zM295.61 309.59h2.62v2.62h-2.62zM210.69 327.6h5.2v2.62h-5.2zM241.57 327.6h7.77v2.62h-7.77zM228.71 330.17h5.2v2.62h-5.2zM267.31 343.04h2.62v2.62h-2.62zM285.32 373.92h2.62v2.62h-2.62zM200.4 386.79h10.34v2.62h-10.34zM246.72 386.79h2.62v2.62h-2.62zM259.59 412.52h7.77v2.62h-7.77z" fill="#A78BFA" shape-rendering="crispEdges" opacity="0"><animate attributeName="opacity" begin="1.62s" dur="0.6s" from="0" to="1" fill="freeze"/></path>
<path d="M285.32 227.24h2.62v2.62h-2.62zM197.83 240.11h2.62v2.62h-2.62zM161.8 250.4h7.77v2.62h-7.77zM182.39 250.4h2.62v2.62h-2.62zM220.99 255.55h2.62v2.62h-2.62zM210.69 263.27h2.62v2.62h-2.62zM280.17 265.84h2.62v2.62h-2.62zM280.17 268.41h5.2v2.62h-5.2zM295.61 283.85h5.2v2.62h-5.2zM262.16 312.16h2.62v2.62h-2.62zM208.12 340.47h2.62v2.62h-2.62zM303.33 340.47h2.62v2.62h-2.62zM182.39 343.04h2.62v2.62h-2.62zM200.4 345.61h2.62v2.62h-2.62zM218.41 350.76h2.62v2.62h-2.62zM293.04 366.2h2.62v2.62h-2.62zM223.56 379.07h5.2v2.62h-5.2zM375.39 389.36h5.2v2.62h-5.2zM115.48 391.93h2.62v2.62h-2.62zM236.43 399.65h7.77v2.62h-7.77zM269.88 399.65h5.2v2.62h-5.2zM241.57 456.27h7.77v2.62h-7.77z" fill="#A78BFA" shape-rendering="crispEdges" opacity="0"><animate attributeName="opacity" begin="1.77s" dur="0.6s" from="0" to="1" fill="freeze"/></path>
<path d="M187.53 186.07h2.62v2.62h-2.62zM323.92 198.93h5.2v2.62h-5.2zM303.33 250.4h2.62v2.62h-2.62zM156.65 255.55h10.34v2.62h-10.34zM282.75 260.69h2.62v2.62h-2.62zM208.12 268.41h2.62v2.62h-2.62zM246.72 276.13h5.2v2.62h-5.2zM303.33 291.57h2.62v2.62h-2.62zM280.17 301.87h7.77v2.62h-7.77zM233.85 325.03h2.62v2.62h-2.62zM192.68 327.6h2.62v2.62h-2.62zM285.32 330.17h2.62v2.62h-2.62zM298.19 343.04h2.62v2.62h-2.62zM275.03 376.49h5.2v2.62h-5.2zM226.13 381.64h2.62v2.62h-2.62zM267.31 384.21h2.62v2.62h-2.62zM267.31 386.79h10.34v2.62h-10.34zM388.25 394.51h2.62v2.62h-2.62zM208.12 402.23h5.2v2.62h-5.2zM251.87 407.37h5.2v2.62h-5.2zM208.12 415.09h5.2v2.62h-5.2zM236.43 420.24h5.2v2.62h-5.2z" fill="#A78BFA" shape-rendering="crispEdges" opacity="0"><animate attributeName="opacity" begin="1.80s" dur="0.6s" from="0" to="1" fill="freeze"/></path>
<path d="M305.91 147.47h2.62v2.62h-2.62zM154.08 162.91h2.62v2.62h-2.62zM244.15 227.24h2.62v2.62h-2.62zM239 240.11h7.77v2.62h-7.77zM231.28 252.97h5.2v2.62h-5.2zM282.75 252.97h2.62v2.62h-2.62zM267.31 270.99h5.2v2.62h-5.2zM298.19 270.99h2.62v2.62h-2.62zM264.73 273.56h10.34v2.62h-10.34zM164.37 276.13h5.2v2.62h-5.2zM177.24 283.85h2.62v2.62h-2.62zM269.88 291.57h10.34v2.62h-10.34zM197.83 322.45h5.2v2.62h-5.2zM187.53 348.19h2.62v2.62h-2.62zM187.53 358.48h2.62v2.62h-2.62zM228.71 384.21h2.62v2.62h-2.62zM246.72 415.09h7.77v2.62h-7.77z" fill="#A78BFA" shape-rendering="crispEdges" opacity="0"><animate attributeName="opacity" begin="1.74s" dur="0.6s" from="0" to="1" fill="freeze"/></path>
<path d="M159.23 157.76h7.77v2.62h-7.77zM143.79 204.08h2.62v2.62h-2.62zM151.51 255.55h2.62v2.62h-2.62zM305.91 255.55h2.62v2.62h-2.62zM272.45 260.69h2.62v2.62h-2.62zM326.49 260.69h2.62v2.62h-2.62zM257.01 273.56h5.2v2.62h-5.2zM156.65 283.85h7.77v2.62h-7.77zM174.67 291.57h5.2v2.62h-5.2zM267.31 325.03h7.77v2.62h-7.77zM239 384.21h2.62v2.62h-2.62zM202.97 404.8h5.2v2.62h-5.2zM280.17 409.95h2.62v2.62h-2.62zM272.45 415.09h2.62v2.62h-2.62zM249.29 422.81h2.62v2.62h-2.62z" fill="#A78BFA" shape-rendering="crispEdges" opacity="0"><animate attributeName="opacity" begin="1.68s" dur="0.6s" from="0" to="1" fill="freeze"/></path>
<path d="M323.92 211.8h2.62v2.62h-2.62zM287.89 240.11h2.62v2.62h-2.62zM329.07 252.97h2.62v2.62h-2.62zM184.96 255.55h2.62v2.62h-2.62zM226.13 255.55h7.77v2.62h-7.77zM187.53 258.12h5.2v2.62h-5.2zM210.69 260.69h7.77v2.62h-7.77zM177.24 263.27h5.2v2.62h-5.2zM298.19 263.27h2.62v2.62h-2.62zM249.29 265.84h2.62v2.62h-2.62zM303.33 270.99h2.62v2.62h-2.62zM205.55 278.71h10.34v2.62h-10.34zM174.67 296.72h2.62v2.62h-2.62zM295.61 296.72h2.62v2.62h-2.62zM200.4 304.44h36.08v2.62h-36.08zM246.72 330.17h5.2v2.62h-5.2zM233.85 332.75h5.2v2.62h-5.2zM275.03 332.75h2.62v2.62h-2.62zM182.39 340.47h5.2v2.62h-5.2zM223.56 343.04h12.92v2.62h-12.92zM262.16 384.21h2.62v2.62h-2.62zM233.85 394.51h10.34v2.62h-10.34zM200.4 399.65h2.62v2.62h-2.62zM264.73 407.37h7.77v2.62h-7.77zM241.57 453.69h2.62v2.62h-2.62z" fill="#A78BFA" shape-rendering="crispEdges" opacity="0"><animate attributeName="opacity" begin="1.81s" dur="0.6s" from="0" to="1" fill="freeze"/></path>
<path d="M197.83 119.16h18.06v2.62h-18.06zM223.56 126.88h2.62v2.62h-2.62zM280.17 134.6h2.62v2.62h-2.62zM323.92 206.65h7.77v2.62h-7.77zM220.99 222.09h2.62v2.62h-2.62zM251.87 232.39h2.62v2.62h-2.62zM195.25 255.55h2.62v2.62h-2.62zM329.07 263.27h2.62v2.62h-2.62zM313.63 265.84h2.62v2.62h-2.62zM323.92 268.41h2.62v2.62h-2.62zM161.8 270.99h5.2v2.62h-5.2zM318.77 291.57h2.62v2.62h-2.62zM184.96 294.15h5.2v2.62h-5.2zM210.69 307.01h5.2v2.62h-5.2zM231.28 322.45h7.77v2.62h-7.77zM277.6 327.6h2.62v2.62h-2.62zM226.13 332.75h5.2v2.62h-5.2zM249.29 332.75h2.62v2.62h-2.62zM187.53 363.63h2.62v2.62h-2.62zM272.45 368.77h2.62v2.62h-2.62zM202.97 407.37h2.62v2.62h-2.62zM241.57 409.95h2.62v2.62h-2.62zM254.44 412.52h2.62v2.62h-2.62z" fill="#A78BFA" shape-rendering="crispEdges" opacity="0"><animate attributeName="opacity" begin="1.82s" dur="0.6s" from="0" to="1" fill="freeze"/></path>
<path d="M323.92 214.37h2.62v2.62h-2.62zM174.67 237.53h2.62v2.62h-2.62zM213.27 250.4h2.62v2.62h-2.62zM329.07 258.12h2.62v2.62h-2.62zM233.85 260.69h10.34v2.62h-10.34zM251.87 268.41h2.62v2.62h-2.62zM156.65 281.28h2.62v2.62h-2.62zM192.68 286.43h15.49v2.62h-15.49zM275.03 307.01h5.2v2.62h-5.2zM280.17 309.59h2.62v2.62h-2.62zM236.43 312.16h2.62v2.62h-2.62zM218.41 314.73h2.62v2.62h-2.62zM305.91 327.6h2.62v2.62h-2.62zM210.69 332.75h12.92v2.62h-12.92zM267.31 335.32h2.62v2.62h-2.62zM220.99 376.49h2.62v2.62h-2.62zM290.47 376.49h2.62v2.62h-2.62zM264.73 381.64h2.62v2.62h-2.62zM213.27 427.96h5.2v2.62h-5.2z" fill="#A78BFA" shape-rendering="crispEdges" opacity="0"><animate attributeName="opacity" begin="1.98s" dur="0.6s" from="0" to="1" fill="freeze"/></path>
<path d="M192.68 132.03h5.2v2.62h-5.2zM316.2 237.53h2.62v2.62h-2.62zM264.73 247.83h2.62v2.62h-2.62zM179.81 252.97h2.62v2.62h-2.62zM172.09 255.55h2.62v2.62h-2.62zM159.23 294.15h5.2v2.62h-5.2zM321.35 296.72h2.62v2.62h-2.62zM226.13 325.03h5.2v2.62h-5.2zM246.72 343.04h2.62v2.62h-2.62zM246.72 345.61h2.62v2.62h-2.62zM236.43 381.64h2.62v2.62h-2.62zM218.41 404.8h2.62v2.62h-2.62zM76.88 407.37h2.62v2.62h-2.62zM254.44 409.95h5.2v2.62h-5.2zM280.17 412.52h2.62v2.62h-2.62zM244.15 458.84h2.62v2.62h-2.62z" fill="#A78BFA" shape-rendering="crispEdges" opacity="0"><animate attributeName="opacity" begin="1.84s" dur="0.6s" from="0" to="1" fill="freeze"/></path>
<path d="M241.57 229.81h2.62v2.62h-2.62zM282.75 232.39h2.62v2.62h-2.62zM231.28 240.11h2.62v2.62h-2.62zM249.29 240.11h2.62v2.62h-2.62zM300.76 245.25h2.62v2.62h-2.62zM159.23 252.97h2.62v2.62h-2.62zM300.76 265.84h2.62v2.62h-2.62zM318.77 265.84h2.62v2.62h-2.62zM251.87 270.99h5.2v2.62h-5.2zM184.96 299.29h43.8v2.62h-43.8zM228.71 314.73h20.64v2.62h-20.64zM280.17 379.07h2.62v2.62h-2.62zM370.24 386.79h2.62v2.62h-2.62zM246.72 399.65h2.62v2.62h-2.62zM210.69 404.8h5.2v2.62h-5.2zM208.12 407.37h5.2v2.62h-5.2z" fill="#A78BFA" shape-rendering="crispEdges" opacity="0"><animate attributeName="opacity" begin="1.91s" dur="0.6s" from="0" to="1" fill="freeze"/></path>
<path d="M321.35 170.63h2.62v2.62h-2.62zM323.92 204.08h5.2v2.62h-5.2zM318.77 222.09h2.62v2.62h-2.62zM228.71 232.39h2.62v2.62h-2.62zM210.69 234.96h2.62v2.62h-2.62zM300.76 260.69h2.62v2.62h-2.62zM174.67 270.99h7.77v2.62h-7.77zM287.89 273.56h5.2v2.62h-5.2zM259.59 278.71h10.34v2.62h-10.34zM272.45 278.71h2.62v2.62h-2.62zM254.44 283.85h2.62v2.62h-2.62zM318.77 283.85h2.62v2.62h-2.62zM197.83 291.57h18.06v2.62h-18.06zM282.75 307.01h5.2v2.62h-5.2zM285.32 309.59h2.62v2.62h-2.62zM277.6 312.16h2.62v2.62h-2.62zM293.04 317.31h2.62v2.62h-2.62zM280.17 325.03h5.2v2.62h-5.2zM192.68 371.35h2.62v2.62h-2.62zM287.89 371.35h2.62v2.62h-2.62zM249.29 384.21h2.62v2.62h-2.62zM287.89 384.21h2.62v2.62h-2.62zM218.41 399.65h2.62v2.62h-2.62zM220.99 427.96h2.62v2.62h-2.62zM239 435.68h10.34v2.62h-10.34z" fill="#A78BFA" shape-rendering="crispEdges" opacity="0"><animate attributeName="opacity" begin="2.07s" dur="0.6s" from="0" to="1" fill="freeze"/></path>
<path d="M226.13 240.11h2.62v2.62h-2.62zM318.77 258.12h2.62v2.62h-2.62zM285.32 263.27h2.62v2.62h-2.62zM295.61 268.41h5.2v2.62h-5.2zM329.07 268.41h2.62v2.62h-2.62zM254.44 276.13h5.2v2.62h-5.2zM305.91 278.71h5.2v2.62h-5.2zM172.09 283.85h2.62v2.62h-2.62zM259.59 291.57h7.77v2.62h-7.77zM215.84 296.72h10.34v2.62h-10.34zM254.44 325.03h2.62v2.62h-2.62zM190.11 330.17h2.62v2.62h-2.62zM280.17 332.75h2.62v2.62h-2.62zM228.71 340.47h5.2v2.62h-5.2zM197.83 358.48h2.62v2.62h-2.62zM280.17 371.35h2.62v2.62h-2.62zM218.41 379.07h2.62v2.62h-2.62zM220.99 394.51h10.34v2.62h-10.34zM246.72 404.8h2.62v2.62h-2.62zM259.59 407.37h2.62v2.62h-2.62zM215.84 415.09h2.62v2.62h-2.62z" fill="#A78BFA" shape-rendering="crispEdges" opacity="0"><animate attributeName="opacity" begin="1.89s" dur="0.6s" from="0" to="1" fill="freeze"/></path>
<path d="M233.85 121.73h2.62v2.62h-2.62zM218.41 229.81h2.62v2.62h-2.62zM293.04 250.4h2.62v2.62h-2.62zM213.27 252.97h2.62v2.62h-2.62zM172.09 260.69h7.77v2.62h-7.77zM262.16 260.69h2.62v2.62h-2.62zM269.88 268.41h7.77v2.62h-7.77zM169.52 270.99h2.62v2.62h-2.62zM262.16 276.13h5.2v2.62h-5.2zM164.37 291.57h5.2v2.62h-5.2zM166.95 294.15h7.77v2.62h-7.77zM254.44 294.15h5.2v2.62h-5.2zM275.03 299.29h7.77v2.62h-7.77zM269.88 330.17h5.2v2.62h-5.2zM269.88 345.61h2.62v2.62h-2.62zM318.77 363.63h2.62v2.62h-2.62zM282.75 384.21h2.62v2.62h-2.62zM218.41 389.36h2.62v2.62h-2.62zM272.45 394.51h5.2v2.62h-5.2zM215.84 417.67h5.2v2.62h-5.2z" fill="#A78BFA" shape-rendering="crispEdges" opacity="0"><animate attributeName="opacity" begin="2.02s" dur="0.6s" from="0" to="1" fill="freeze"/></path>
<path d="M156.65 152.61h5.2v2.62h-5.2zM143.79 191.21h2.62v2.62h-2.62zM197.83 258.12h2.62v2.62h-2.62zM169.52 265.84h2.62v2.62h-2.62zM285.32 265.84h2.62v2.62h-2.62zM277.6 278.71h7.77v2.62h-7.77zM295.61 278.71h2.62v2.62h-2.62zM269.88 299.29h2.62v2.62h-2.62zM228.71 301.87h10.34v2.62h-10.34zM177.24 307.01h2.62v2.62h-2.62zM213.27 340.47h2.62v2.62h-2.62zM190.11 361.05h5.2v2.62h-5.2zM166.95 366.2h2.62v2.62h-2.62zM190.11 379.07h5.2v2.62h-5.2zM205.55 381.64h7.77v2.62h-7.77zM290.47 381.64h2.62v2.62h-2.62zM241.57 386.79h2.62v2.62h-2.62zM223.56 389.36h5.2v2.62h-5.2zM215.84 409.95h2.62v2.62h-2.62zM220.99 409.95h7.77v2.62h-7.77zM231.28 409.95h7.77v2.62h-7.77zM241.57 440.83h7.77v2.62h-7.77z" fill="#A78BFA" shape-rendering="crispEdges" opacity="0"><animate attributeName="opacity" begin="2.14s" dur="0.6s" from="0" to="1" fill="freeze"/></path>
</g>
<text x="480" y="76" font-size="15" letter-spacing="1" font-weight="bold" fill="#22D3EE">SYSTEM.INFO</text>
<rect x="1092" y="60" width="58" height="20" rx="5" fill="none" stroke="#1B2740"/>
<circle cx="1105" cy="70" r="4" fill="#FF4D4D"><animate attributeName="opacity" values="1;0.2;1" dur="1.2s" repeatCount="indefinite"/></circle>
<text x="1116" y="74" font-size="11" letter-spacing="1" fill="#FF6B6B">LIVE</text>
<rect x="480" y="86" width="149" height="24" rx="12" fill="#132033" stroke="#1B2740"/>
<circle cx="494" cy="98" r="4" fill="#10B981"/>
<text x="506" y="102" font-size="13" fill="#F1F5F9">@imvishalbhargav</text>
<line x1="488" y1="146" x2="1150" y2="146" stroke="#26324A"/>
<text x="488" y="159" font-size="10" letter-spacing="3" fill="#5A6B85">SYSTEM</text>
<text x="488" y="174.5" font-size="13.0" fill="#8FA3BF">Subject</text>
<text x="1140" y="174.5" font-size="13.0" fill="#F1F5F9" text-anchor="end" textLength="100.1" lengthAdjust="spacingAndGlyphs">Vishal Bhargav</text>
<line x1="546.0" y1="170.5" x2="1031.9" y2="170.5" stroke="#26324A" stroke-dasharray="1 4"/>
<text x="488" y="195.0" font-size="13.0" fill="#8FA3BF">Role</text>
<text x="1140" y="195.0" font-size="13.0" fill="#F1F5F9" text-anchor="end" textLength="164.5" lengthAdjust="spacingAndGlyphs">Cloud &amp; DevOps Engineer</text>
<line x1="524.6" y1="191.0" x2="967.5" y2="191.0" stroke="#26324A" stroke-dasharray="1 4"/>
<text x="488" y="215.5" font-size="13.0" fill="#8FA3BF">Origin</text>
<text x="1140" y="215.5" font-size="13.0" fill="#F1F5F9" text-anchor="end" textLength="93.0" lengthAdjust="spacingAndGlyphs">Jaipur, India</text>
<line x1="538.9" y1="211.5" x2="1039.0" y2="211.5" stroke="#26324A" stroke-dasharray="1 4"/>
<text x="488" y="236.0" font-size="13.0" fill="#8FA3BF">Education</text>
<text x="1140" y="236.0" font-size="13.0" fill="#F1F5F9" text-anchor="end" textLength="178.8" lengthAdjust="spacingAndGlyphs">B.Tech CSE - Arya College</text>
<line x1="560.4" y1="232.0" x2="953.2" y2="232.0" stroke="#26324A" stroke-dasharray="1 4"/>
<text x="488" y="256.5" font-size="13.0" fill="#8FA3BF">Status</text>
<text x="1140" y="256.5" font-size="13.0" fill="#F1F5F9" text-anchor="end" textLength="214.5" lengthAdjust="spacingAndGlyphs">Building - Learning - Shipping</text>
<line x1="538.9" y1="252.5" x2="917.5" y2="252.5" stroke="#26324A" stroke-dasharray="1 4"/>
<text x="488" y="277.0" font-size="13.0" fill="#8FA3BF">ToolChain</text>
<text x="1140" y="277.0" font-size="13.0" fill="#F1F5F9" text-anchor="end" textLength="185.9" lengthAdjust="spacingAndGlyphs">VSCode - Git - Docker - TF</text>
<line x1="560.4" y1="273.0" x2="946.1" y2="273.0" stroke="#26324A" stroke-dasharray="1 4"/>
<line x1="488" y1="293.5" x2="1150" y2="293.5" stroke="#26324A"/>
<text x="488" y="306.5" font-size="10" letter-spacing="3" fill="#5A6B85">CORE</text>
<text x="488" y="322.0" font-size="13.0" fill="#8FA3BF">Lang</text>
<text x="1140" y="322.0" font-size="13.0" fill="#F1F5F9" text-anchor="end" textLength="114.4" lengthAdjust="spacingAndGlyphs">Python - C - C++</text>
<line x1="524.6" y1="318.0" x2="1017.6" y2="318.0" stroke="#26324A" stroke-dasharray="1 4"/>
<text x="488" y="342.5" font-size="13.0" fill="#8FA3BF">Cloud</text>
<text x="1140" y="342.5" font-size="13.0" fill="#F1F5F9" text-anchor="end" textLength="64.4" lengthAdjust="spacingAndGlyphs">AWS - GCP</text>
<line x1="531.8" y1="338.5" x2="1067.7" y2="338.5" stroke="#26324A" stroke-dasharray="1 4"/>
<text x="488" y="363.0" font-size="13.0" fill="#8FA3BF">Container</text>
<text x="1140" y="363.0" font-size="13.0" fill="#F1F5F9" text-anchor="end" textLength="135.8" lengthAdjust="spacingAndGlyphs">Docker - K8s - Helm</text>
<line x1="560.4" y1="359.0" x2="996.1" y2="359.0" stroke="#26324A" stroke-dasharray="1 4"/>
<text x="488" y="383.5" font-size="13.0" fill="#8FA3BF">IaC</text>
<text x="1140" y="383.5" font-size="13.0" fill="#F1F5F9" text-anchor="end" textLength="135.8" lengthAdjust="spacingAndGlyphs">Terraform - Ansible</text>
<line x1="517.5" y1="379.5" x2="996.1" y2="379.5" stroke="#26324A" stroke-dasharray="1 4"/>
<text x="488" y="404.0" font-size="13.0" fill="#8FA3BF">CI/CD</text>
<text x="1140" y="404.0" font-size="13.0" fill="#F1F5F9" text-anchor="end" textLength="100.1" lengthAdjust="spacingAndGlyphs">GitHub Actions</text>
<line x1="531.8" y1="400.0" x2="1031.9" y2="400.0" stroke="#26324A" stroke-dasharray="1 4"/>
<text x="488" y="424.5" font-size="13.0" fill="#8FA3BF">Monitor</text>
<text x="1140" y="424.5" font-size="13.0" fill="#F1F5F9" text-anchor="end" textLength="93.0" lengthAdjust="spacingAndGlyphs">Grafana - ELK</text>
<line x1="546.0" y1="420.5" x2="1039.0" y2="420.5" stroke="#26324A" stroke-dasharray="1 4"/>
<line x1="488" y1="441.0" x2="1150" y2="441.0" stroke="#26324A"/>
<text x="488" y="454.0" font-size="10" letter-spacing="3" fill="#5A6B85">GRID</text>
<text x="488" y="469.5" font-size="13.0" fill="#8FA3BF">Mail</text>
<text x="1140" y="469.5" font-size="13.0" fill="#F1F5F9" text-anchor="end" textLength="178.8" lengthAdjust="spacingAndGlyphs">imvishalbhargav@gmail.com</text>
<line x1="524.6" y1="465.5" x2="953.2" y2="465.5" stroke="#26324A" stroke-dasharray="1 4"/>
<text x="488" y="490.0" font-size="13.0" fill="#8FA3BF">Portfolio</text>
<text x="1140" y="490.0" font-size="13.0" fill="#F1F5F9" text-anchor="end" textLength="185.9" lengthAdjust="spacingAndGlyphs">imvishalbhargav.vercel.app</text>
<line x1="560.4" y1="486.0" x2="946.1" y2="486.0" stroke="#26324A" stroke-dasharray="1 4"/>
<text x="488" y="510.5" font-size="13.0" fill="#8FA3BF">LinkedIn</text>
<text x="1140" y="510.5" font-size="13.0" fill="#F1F5F9" text-anchor="end" textLength="135.8" lengthAdjust="spacingAndGlyphs">/in/imvishalbhargav</text>
<line x1="553.2" y1="506.5" x2="996.1" y2="506.5" stroke="#26324A" stroke-dasharray="1 4"/>
<text x="488" y="531.0" font-size="13.0" fill="#8FA3BF">GitHub</text>
<text x="1140" y="531.0" font-size="13.0" fill="#F1F5F9" text-anchor="end" textLength="107.2" lengthAdjust="spacingAndGlyphs">imvishalbhargav</text>
<line x1="538.9" y1="527.0" x2="1024.8" y2="527.0" stroke="#26324A" stroke-dasharray="1 4"/>
</svg>