<svg xmlns="http://www.w3.org/2000/svg" width="92" height="48" viewBox="0 0 92 48" fill="none" font-family="'Segoe UI','Helvetica Neue',Arial,sans-serif"><defs><linearGradient id="gcpp" x1="0" y1="0" x2="0" y2="1"><stop offset="0" stop-color="#2E77AE"/><stop offset="1" stop-color="#00457A"/></linearGradient><linearGradient id="glcpp" x1="0" y1="0" x2="0" y2="1"><stop offset="0" stop-color="#FFFFFF" stop-opacity="0.4"/><stop offset="0.6" stop-color="#FFFFFF" stop-opacity="0.04"/><stop offset="1" stop-color="#FFFFFF" stop-opacity="0"/></linearGradient><linearGradient id="shcpp" x1="0" y1="0" x2="1" y2="0"><stop offset="0" stop-color="#FFFFFF" stop-opacity="0"/><stop offset="0.5" stop-color="#FFFFFF" stop-opacity="0.6"/><stop offset="1" stop-color="#FFFFFF" stop-opacity="0"/></linearGradient><clipPath id="ccpp"><rect x="7" y="7" width="78" height="34" rx="9"/></clipPath><filter id="fcpp" x="-60%" y="-60%" width="220%" height="220%"><feGaussianBlur stdDeviation="4"/></filter></defs><rect x="7" y="7" width="78" height="34" rx="9" fill="#4787B8" filter="url(#fcpp)" opacity="0.4"><animate attributeName="opacity" values="0.3;0.6;0.3" dur="3.2s" begin="0.00s" repeatCount="indefinite" calcMode="spline" keyTimes="0;0.5;1" keySplines="0.4 0 0.6 1;0.4 0 0.6 1"/></rect><rect x="7" y="9" width="78" height="34" rx="9" fill="#003156"/><rect x="7" y="7" width="78" height="34" rx="9" fill="url(#gcpp)" stroke="#80ACCE" stroke-opacity="0.55" stroke-width="1"/><g clip-path="url(#ccpp)"><rect x="7" y="7" width="78" height="17.7" fill="url(#glcpp)"/></g><g clip-path="url(#ccpp)"><g transform="skewX(-20)"><rect y="-27" width="20" height="102" fill="url(#shcpp)"><animate attributeName="x" values="-50;122;122" keyTimes="0;0.4;1" dur="3.6s" begin="0.00s" repeatCount="indefinite" calcMode="spline" keySplines="0.45 0 0.15 1;0 0 1 1"/></rect></g></g><g transform="translate(20.0,16.0) scale(0.6667)" fill="#FFFFFF" opacity="0.96"><path d="M22.394 6c-.167-.29-.398-.543-.652-.69L12.926.22c-.509-.294-1.34-.294-1.848 0L2.26 5.31c-.508.293-.923 1.013-.923 1.6v10.18c0 .294.104.62.271.91.167.29.398.543.652.69l8.816 5.09c.508.293 1.34.293 1.848 0l8.816-5.09c.254-.147.485-.4.652-.69.167-.29.27-.616.27-.91V6.91c.003-.294-.1-.62-.268-.91zM12 19.11c-3.92 0-7.109-3.19-7.109-7.11 0-3.92 3.19-7.11 7.11-7.11a7.133 7.133 0 016.156 3.553l-3.076 1.78a3.567 3.567 0 00-3.08-1.78A3.56 3.56 0 008.444 12 3.56 3.56 0 0012 15.555a3.57 3.57 0 003.08-1.778l3.078 1.78A7.135 7.135 0 0112 19.11zm7.11-6.715h-.79v.79h-.79v-.79h-.79v-.79h.79v-.79h.79v.79h.79zm2.962 0h-.79v.79h-.79v-.79h-.79v-.79h.79v-.79h.79v.79h.79z"/></g><text x="44.0" y="24.0" font-size="12.5" font-weight="700" letter-spacing="0.2" fill="#FFFFFF" dominant-baseline="central">C++</text></svg>