<svg xmlns="http://www.w3.org/2000/svg" width="126" height="48" viewBox="0 0 126 48" fill="none" font-family="'Segoe UI','Helvetica Neue',Arial,sans-serif"><defs><linearGradient id="gjavascript" x1="0" y1="0" x2="0" y2="1"><stop offset="0" stop-color="#F8E546"/><stop offset="1" stop-color="#C1AE17"/></linearGradient><linearGradient id="gljavascript" x1="0" y1="0" x2="0" y2="1"><stop offset="0" stop-color="#FFFFFF" stop-opacity="0.4"/><stop offset="0.6" stop-color="#FFFFFF" stop-opacity="0.04"/><stop offset="1" stop-color="#FFFFFF" stop-opacity="0"/></linearGradient><linearGradient id="shjavascript" x1="0" y1="0" x2="1" y2="0"><stop offset="0" stop-color="#FFFFFF" stop-opacity="0"/><stop offset="0.5" stop-color="#FFFFFF" stop-opacity="0.6"/><stop offset="1" stop-color="#FFFFFF" stop-opacity="0"/></linearGradient><clipPath id="cjavascript"><rect x="7" y="7" width="112" height="34" rx="9"/></clipPath><filter id="fjavascript" x="-60%" y="-60%" width="220%" height="220%"><feGaussianBlur stdDeviation="4"/></filter></defs><rect x="7" y="7" width="112" height="34" rx="9" fill="#F9E85D" filter="url(#fjavascript)" opacity="0.4"><animate attributeName="opacity" values="0.3;0.6;0.3" dur="3.2s" begin="0.84s" repeatCount="indefinite" calcMode="spline" keyTimes="0;0.5;1" keySplines="0.4 0 0.6 1;0.4 0 0.6 1"/></rect><rect x="7" y="9" width="112" height="34" rx="9" fill="#887B10"/><rect x="7" y="7" width="112" height="34" rx="9" fill="url(#gjavascript)" stroke="#FBEF8E" stroke-opacity="0.55" stroke-width="1"/><g clip-path="url(#cjavascript)"><rect x="7" y="7" width="112" height="17.7" fill="url(#gljavascript)"/></g><g clip-path="url(#cjavascript)"><g transform="skewX(-20)"><rect y="-27" width="20" height="102" fill="url(#shjavascript)"><animate attributeName="x" values="-50;156;156" keyTimes="0;0.4;1" dur="3.6s" begin="0.84s" repeatCount="indefinite" calcMode="spline" keySplines="0.45 0 0.15 1;0 0 1 1"/></rect></g></g><g transform="translate(20.0,16.0) scale(0.6667)" fill="#0A101F" opacity="0.96"><path d="M0 0h24v24H0V0zm22.034 18.276c-.175-1.095-.888-2.015-3.003-2.873-.736-.345-1.554-.585-1.797-1.14-.091-.33-.105-.51-.046-.705.15-.646.915-.84 1.515-.66.39.12.75.42.976.9 1.034-.676 1.034-.676 1.755-1.125-.27-.42-.404-.601-.586-.78-.63-.705-1.469-1.065-2.834-1.034l-.705.089c-.676.165-1.32.525-1.71 1.005-1.14 1.291-.811 3.541.569 4.471 1.365 1.02 3.361 1.244 3.616 2.205.24 1.17-.87 1.545-1.966 1.41-.811-.18-1.26-.586-1.755-1.336l-1.83 1.051c.21.48.45.689.81 1.109 1.74 1.756 6.09 1.666 6.871-1.004.029-.09.24-.705.074-1.65l.046.067zm-8.983-7.245h-2.248c0 1.938-.009 3.864-.009 5.805 0 1.232.063 2.363-.138 2.711-.33.689-1.18.601-1.566.48-.396-.196-.597-.466-.83-.855-.063-.105-.11-.196-.127-.196l-1.825 1.125c.305.63.75 1.172 1.324 1.517.855.51 2.004.675 3.207.405.783-.226 1.458-.691 1.811-1.411.51-.93.402-2.07.397-3.346.012-2.054 0-4.109 0-6.179l.004-.056z"/></g><text x="44.0" y="24.0" font-size="12.5" font-weight="700" letter-spacing="0.2" fill="#0A101F" dominant-baseline="central">JavaScript</text></svg>