<svg xmlns="http://www.w3.org/2000/svg" width="126" height="48" viewBox="0 0 126 48" fill="none" font-family="'Segoe UI','Helvetica Neue',Arial,sans-serif"><defs><linearGradient id="gmongodb" x1="0" y1="0" x2="0" y2="1"><stop offset="0" stop-color="#68B369"/><stop offset="1" stop-color="#377E38"/></linearGradient><linearGradient id="glmongodb" x1="0" y1="0" x2="0" y2="1"><stop offset="0" stop-color="#FFFFFF" stop-opacity="0.4"/><stop offset="0.6" stop-color="#FFFFFF" stop-opacity="0.04"/><stop offset="1" stop-color="#FFFFFF" stop-opacity="0"/></linearGradient><linearGradient id="shmongodb" x1="0" y1="0" x2="1" y2="0"><stop offset="0" stop-color="#FFFFFF" stop-opacity="0"/><stop offset="0.5" stop-color="#FFFFFF" stop-opacity="0.6"/><stop offset="1" stop-color="#FFFFFF" stop-opacity="0"/></linearGradient><clipPath id="cmongodb"><rect x="7" y="7" width="112" height="34" rx="9"/></clipPath><filter id="fmongodb" x="-60%" y="-60%" width="220%" height="220%"><feGaussianBlur stdDeviation="4"/></filter></defs><rect x="7" y="7" width="112" height="34" rx="9" fill="#7BBC7B" filter="url(#fmongodb)" opacity="0.4"><animate attributeName="opacity" values="0.3;0.6;0.3" dur="3.2s" begin="1.68s" repeatCount="indefinite" calcMode="spline" keyTimes="0;0.5;1" keySplines="0.4 0 0.6 1;0.4 0 0.6 1"/></rect><rect x="7" y="9" width="112" height="34" rx="9" fill="#275928"/><rect x="7" y="7" width="112" height="34" rx="9" fill="url(#gmongodb)" stroke="#A3D0A4" stroke-opacity="0.55" stroke-width="1"/><g clip-path="url(#cmongodb)"><rect x="7" y="7" width="112" height="17.7" fill="url(#glmongodb)"/></g><g clip-path="url(#cmongodb)"><g transform="skewX(-20)"><rect y="-27" width="20" height="102" fill="url(#shmongodb)"><animate attributeName="x" values="-50;156;156" keyTimes="0;0.4;1" dur="3.6s" begin="1.68s" repeatCount="indefinite" calcMode="spline" keySplines="0.45 0 0.15 1;0 0 1 1"/></rect></g></g><g transform="translate(20.0,16.0) scale(0.6667)" fill="#FFFFFF" opacity="0.96"><path d="M17.193 9.555c-1.264-5.58-4.252-7.414-4.573-8.115-.28-.394-.53-.954-.735-1.44-.036.495-.055.685-.523 1.184-.723.566-4.438 3.682-4.74 10.02-.282 5.912 4.27 9.435 4.888 9.884l.07.05A73.49 73.49 0 0111.91 24h.481c.114-1.032.284-2.056.51-3.07.417-.296.604-.463.85-.693a11.342 11.342 0 003.639-8.464c.01-.814-.103-1.662-.197-2.218zm-5.336 8.195s0-8.291.275-8.29c.213 0 .49 10.695.49 10.695-.381-.045-.765-1.76-.765-2.405z"/></g><text x="44.0" y="24.0" font-size="12.5" font-weight="700" letter-spacing="0.2" fill="#FFFFFF" dominant-baseline="central">MongoDB</text></svg>