<svg xmlns="http://www.w3.org/2000/svg" width="136" height="64" viewBox="0 0 136 64" fill="none" font-family="'Segoe UI','Helvetica Neue',Arial,sans-serif"><defs><linearGradient id="greddit" x1="0" y1="0" x2="0" y2="1"><stop offset="0" stop-color="#FF6329"/><stop offset="1" stop-color="#CC3700"/></linearGradient><linearGradient id="glreddit" x1="0" y1="0" x2="0" y2="1"><stop offset="0" stop-color="#FFFFFF" stop-opacity="0.42"/><stop offset="0.55" stop-color="#FFFFFF" stop-opacity="0.06"/><stop offset="1" stop-color="#FFFFFF" stop-opacity="0"/></linearGradient><linearGradient id="shreddit" x1="0" y1="0" x2="1" y2="0"><stop offset="0" stop-color="#FFFFFF" stop-opacity="0"/><stop offset="0.5" stop-color="#FFFFFF" stop-opacity="0.75"/><stop offset="1" stop-color="#FFFFFF" stop-opacity="0"/></linearGradient><clipPath id="creddit"><rect x="10" y="10" width="116" height="44" rx="12"/></clipPath><filter id="freddit" x="-60%" y="-60%" width="220%" height="220%"><feGaussianBlur stdDeviation="5.5"/></filter></defs><rect x="10" y="10" width="116" height="44" rx="12" fill="#FF6A33" filter="url(#freddit)" opacity="0.55"><animate attributeName="opacity" values="0.4;0.85;0.4" dur="2.6s" repeatCount="indefinite" calcMode="spline" keyTimes="0;0.5;1" keySplines="0.4 0 0.6 1;0.4 0 0.6 1"/></rect><rect x="10" y="12.5" width="116" height="44" rx="12" fill="#942800"/><rect x="10" y="10" width="116" height="44" rx="12" fill="url(#greddit)" stroke="#FF9973" stroke-opacity="0.55" stroke-width="1"/><g clip-path="url(#creddit)"><rect x="10" y="10" width="116" height="24.2" fill="url(#glreddit)"/></g><g clip-path="url(#creddit)"><g transform="skewX(-20)"><rect y="-34" width="24" height="132" fill="url(#shreddit)" opacity="0.55"><animate attributeName="x" values="-64;174;174" keyTimes="0;0.42;1" dur="3.4s" repeatCount="indefinite" calcMode="spline" keySplines="0.45 0 0.15 1;0 0 1 1"/></rect></g></g><g transform="translate(29.0,23.0) scale(0.7500)" fill="#FFFFFF" opacity="0.97"><path d="M12 0C5.373 0 0 5.373 0 12c0 3.314 1.343 6.314 3.515 8.485l-2.286 2.286C.775 23.225 1.097 24 1.738 24H12c6.627 0 12-5.373 12-12S18.627 0 12 0Zm4.388 3.199c1.104 0 1.999.895 1.999 1.999 0 1.105-.895 2-1.999 2-.946 0-1.739-.657-1.947-1.539v.002c-1.147.162-2.032 1.15-2.032 2.341v.007c1.776.067 3.4.567 4.686 1.363.473-.363 1.064-.58 1.707-.58 1.547 0 2.802 1.254 2.802 2.802 0 1.117-.655 2.081-1.601 2.531-.088 3.256-3.637 5.876-7.997 5.876-4.361 0-7.905-2.617-7.998-5.87-.954-.447-1.614-1.415-1.614-2.538 0-1.548 1.255-2.802 2.803-2.802.645 0 1.239.218 1.712.585 1.275-.79 2.881-1.291 4.64-1.365v-.01c0-1.663 1.263-3.034 2.88-3.207.188-.911.993-1.595 1.959-1.595Zm-8.085 8.376c-.784 0-1.459.78-1.506 1.797-.047 1.016.64 1.429 1.426 1.429.786 0 1.371-.369 1.418-1.385.047-1.017-.553-1.841-1.338-1.841Zm7.406 0c-.786 0-1.385.824-1.338 1.841.047 1.017.634 1.385 1.418 1.385.785 0 1.473-.413 1.426-1.429-.046-1.017-.721-1.797-1.506-1.797Zm-3.703 4.013c-.974 0-1.907.048-2.77.135-.147.015-.241.168-.183.305.483 1.154 1.622 1.964 2.953 1.964 1.33 0 2.47-.81 2.953-1.964.057-.137-.037-.29-.184-.305-.863-.087-1.795-.135-2.769-.135Z"/></g><text x="58.0" y="32.0" font-size="14.5" font-weight="700" letter-spacing="0.2" fill="#FFFFFF" dominant-baseline="central">Reddit</text></svg>